<svg width="335" height="140" fill="none" xmlns="http://www.w3.org/2000/svg"><g clip-path="url(#a)"><path d="M283.07 63.587a3.749 3.749 0 0 0-1.96 4.786c.204.466.449.912.733 1.334 2.8 3.587 1.2 10.333-2.533 13.253-2.934 2.12-6.267 2.507-9.734 2.667-13.333.4-24.266 1.853-37.467 1.973-23.466.134-24.626-.12-48.093.134-18.134.133-36.267.8-54.267 1.466-13.734.654-27.467 1.854-41.2 2.774L66.147 93.48l-3.867.4a2.786 2.786 0 0 1-3.066-1.586c-.4-.92-.934-1.054-1.867-1.054-2.133-.133-4.4-.4-6.533-.666a4 4 0 0 1-3.6-3.707c-.934-4.773 1.2-9.014 5.866-10.467 4.134-1.333 8.534-1.987 13.067-3.04.176-.99.266-1.994.267-3a1.133 1.133 0 0 0-.8-.92c-.667-.4-1.467-.667-2.134-1.067-3.2-1.586-4.933-4-4.8-7.546.134-4 1.334-7.68 5.334-9.134a52.006 52.006 0 0 1 10-2.386 40.163 40.163 0 0 1 8-.267c12.933.533 26.133-.933 39.333-1.067 13.734-.12 27.601-.386 41.334-.653 22-.533 44.001-1.333 66.001-1.853 11.866-.267 1.426-.134 13.333-.267 8.267 0 16.667-.133 24.934-.133 1.582-.08 3.168.005 4.733.253a4 4 0 0 1 3.4 2.667 1.331 1.331 0 0 0 1.2.8c2.133.133 4.267.266 6.4.266a3.654 3.654 0 0 1 3.734 2.387 10.88 10.88 0 0 1-2.52 11.707c-.183.14-.375.27-.574.386l-.253.054Z" fill="#fff"/><path d="M217.536 52.254c1.013.293 1.587.44 1.88.573l.867.88a1.76 1.76 0 0 0 0 2.026 2.098 2.098 0 0 1 .146 1.88 17.708 17.708 0 0 0-.44 3.907 21.968 21.968 0 0 0-.28 4.347c0 2.747 0 5.493-.146 8.4v2.453c0 .294 0 .44-.147.587a7.525 7.525 0 0 0-1.16 2.16c-.293.733-1.013.88-2.027.587a2.962 2.962 0 0 1-1.333-1.6 19.11 19.11 0 0 1-.72-2.027 46.505 46.505 0 0 1-1.333-9.12 31.6 31.6 0 0 1 .866-9.12 18.34 18.34 0 0 1 1.16-2.893c.279-.937.618-1.854 1.014-2.747.2-.44.64-.44 1.653-.293Zm-9.413 1.733a3.558 3.558 0 0 1 2.466.733 4.48 4.48 0 0 1 1.334 2.667.999.999 0 0 1-.574.72 18.667 18.667 0 0 1-2.746 1.6c-.877.413-1.805.704-2.76.867-.147 0-.147.146-.294.146-.133.427-.28 1.014-.426 1.44-.294 2.32-.44 4.64-.587 6.96v6.8a7.23 7.23 0 0 1-.573 3.907 2.747 2.747 0 0 1-1.587 1.013 1.333 1.333 0 0 1-1.747-1.013 4.001 4.001 0 0 0-1.333-1.44 7.838 7.838 0 0 1-1.453-3.773 25.318 25.318 0 0 1-.294-4.627 26.26 26.26 0 0 1 .294-4.787c0-.426.146-1.146.293-2.306.147-1.16.573-1.747.867-1.894h-1.6a15.818 15.818 0 0 1-4.334-1.146 9.332 9.332 0 0 1-3.333-1.894 4.096 4.096 0 0 1-.587-2.026 2.174 2.174 0 0 1 .587-2.027c.372-.46.823-.848 1.333-1.147.72.28 1.334.574 2.027.867a5.637 5.637 0 0 0 2.16.146h6.667c2.146.067 4.226.214 6.2.214Zm26.667-1.16a7.69 7.69 0 0 1 2.746.733 2.169 2.169 0 0 1 1.427 2.133c-.062.41-.212.801-.44 1.147-.28.587-.573 1.013-.72 1.333-.293.587-.72.867-1.013.867a2.227 2.227 0 0 0-1.16-.28 3.294 3.294 0 0 0-2.027.427c-.273.12-.57.17-.867.147a3.67 3.67 0 0 1-1.013-.294 2.003 2.003 0 0 0-.867-.28 1.042 1.042 0 0 0-.293.574c.147.999.546 1.944 1.16 2.746.72 1.014 1.333 1.6 1.587 2.027a44.876 44.876 0 0 1 3.186 4 9.253 9.253 0 0 1 1.6 4.347 5.58 5.58 0 0 1-.261 2.505 5.585 5.585 0 0 1-1.339 2.135 7.918 7.918 0 0 1-4.92 2.026c-.669.117-1.348.167-2.026.147a7.504 7.504 0 0 1-3.48-1.333 4.474 4.474 0 0 1-2.454-2.467c0-.867.147-1.333.867-1.333.475.117.965.162 1.453.133 1.014-.133 2.174-.427 3.467-.72.733-.293 1.333-.427 2.027-.72a15.264 15.264 0 0 1-1.334-1.6c-.146-.147-.293-.427-.586-.72a22.992 22.992 0 0 1-4.694-6.813 14.643 14.643 0 0 1-1.333-4 6.055 6.055 0 0 1 3.04-5.934 8.876 8.876 0 0 1 3.48-1.16 9.33 9.33 0 0 1 2.027.28 6.145 6.145 0 0 1 2.733-.053h.027Zm20 1.013a22.885 22.885 0 0 1 4.693 2.027c0 .02.004.038.011.056a.151.151 0 0 0 .136.09 1.148 1.148 0 0 1-1.014 1.454c-1.16 0-2.32.147-3.48.147a15.46 15.46 0 0 0-2.666.146.735.735 0 0 0-.734.574c-.426 2.173-1.013 4.2-1.44 6.226 0 .147-.146.294-.146.574a28.055 28.055 0 0 1 3.333-.28 13.63 13.63 0 0 1 2.453.28c.448.039.864.249 1.16.586.587.427 1.014.867 1.6 1.334-.12.272-.17.57-.146.866 0 .574-.294.867-1.014 1.16-.808.284-1.632.524-2.466.72-1.64.498-3.367.644-5.067.427-.147 0-.147-.133-.293-.133-.574 0-.867.133-.867.72a21.363 21.363 0 0 0-.28 3.04c-.044.784.051 1.569.28 2.32.587-.147 1.16-.44 1.747-.587 1.013-.427 1.88-1.013 2.746-1.44a3.056 3.056 0 0 1 3.76.427 6.778 6.778 0 0 0 1.747 1.333c.133.147.28.293.28.44a2.845 2.845 0 0 1-.427 1.44 7.514 7.514 0 0 1-3.773 2.893 12.444 12.444 0 0 1-3.32.88h-2.173a5.996 5.996 0 0 1-2.76-.733 5.76 5.76 0 0 1-3.614-2.747 11.193 11.193 0 0 1-1.733-7.386c.133-1.16.427-2.467.72-3.907.293-1.733.867-3.48 1.333-5.333.28-.867.72-1.734 1.014-2.747a1.336 1.336 0 0 0-.294-1.747c-.72-1.013-.586-1.88.427-2.453a9.215 9.215 0 0 1 4.427-1.48c1.88.24 3.866.386 5.8.813h.04ZM95.762 65.28c-.427-1.16-.867-2.173-1.16-3.04-.28.867-.72 1.88-1.014 3.04-.392.9-.73 1.82-1.013 2.76-.147.867-.427 1.734-.573 2.747l.146-.293c.134.146.28.293.427.293.733 0 1.6.147 2.467.147a15.51 15.51 0 0 0 2.453.146 24.23 24.23 0 0 0-.68-2.906c-.333-.72-.613-1.734-1.053-2.894Zm-8.827-2.666a68.537 68.537 0 0 1 3.04-5.507 7.92 7.92 0 0 1 4.773-3.614v.28a6.88 6.88 0 0 1 4.2 3.04c.867 1.6 1.734 3.187 2.6 4.934.504.986.949 2.002 1.334 3.04.293 1.16.733 2.173 1.013 3.04.28.867.733 2.307 1.013 3.613.28 1.307.587 2.467.867 3.627.05.585.148 1.165.293 1.733.159.616.257 1.246.294 1.88a2.864 2.864 0 0 1 0 1.6c-.147.427-.587.72-1.16 1.16a2.827 2.827 0 0 1-3.187.134 4.358 4.358 0 0 1-2.027-2.747c-.146-.293-.293-.44-.293-.72a10.662 10.662 0 0 1-.28-1.16c-.34.026-.68.075-1.013.147-.718.121-1.446.17-2.174.146a21.976 21.976 0 0 1-6.52-1.16v.427a5.125 5.125 0 0 0-.293 1.453 1.08 1.08 0 0 0-.28.72c-.26.504-.554.99-.88 1.454-.146.16-.243.36-.28.573a1.973 1.973 0 0 0-.867.293 2.04 2.04 0 0 1-1.333.147 2.787 2.787 0 0 1-1.453-.44 1.107 1.107 0 0 1-1.014-.573v-.867c0-.147-.146-.44-.146-.587v-1.96a12.49 12.49 0 0 0 .32-2.453c.27-2.524.852-5.006 1.733-7.387.413-1.013.933-2.613 1.72-4.2v-.066Zm21.574-1.747c.041-.661.144-1.318.306-1.96.176-.63.475-1.22.88-1.733.28-.574.72-1.16 1.014-1.734a1.588 1.588 0 0 1 1.146-.44h2.04c.28 0 .427.147.72.294.146.273.34.517.574.72-.03.305-.126.6-.28.866.416.254.864.452 1.333.587.587.293 1.013.427 1.333.573a21.755 21.755 0 0 1 8.4 6.52 12.909 12.909 0 0 1 2.667 5.934 9.146 9.146 0 0 1-3.04 8 11.454 11.454 0 0 1-4.773 2.76c-.44.146-1.014.293-1.6.426a23.191 23.191 0 0 1-4.48.44h-.6c-.574-.146-1.014-.146-1.334.294h-1.333a2.198 2.198 0 0 1-1.88-1.454 10.01 10.01 0 0 0-.587-1.453 11.77 11.77 0 0 1-.573-2.16 50.7 50.7 0 0 1-.587-9.413c.025-1.02.123-2.035.294-3.04-.09-1.331.032-2.668.36-3.96v-.067Zm21.426-3.84c.457-.46.978-.85 1.547-1.16a2.106 2.106 0 0 1 1.6-.133c.351.22.689.46 1.013.72a2.16 2.16 0 0 0 .088 1.11c.127.355.345.672.632.916.345.701.635 1.428.867 2.174.147.866.147 1.586.293 2.32.311 2.596.841 5.16 1.587 7.666.166.367.265.76.293 1.16.147-.293.147-.44.294-.586a131.958 131.958 0 0 0 2.453-7.094c.44-1.146.88-2.16 1.333-3.186l.147-.134a2.874 2.874 0 0 1 1.16-1.893c.293-.133.573-.28.573-.72.15-.274.349-.518.587-.72a1.763 1.763 0 0 1 1.333-.44h1.44a13.273 13.273 0 0 0 .307 4.2 6.172 6.172 0 0 1-.146 3.627 50.988 50.988 0 0 1-2.027 7.666 20.309 20.309 0 0 1-1.734 4 24.921 24.921 0 0 1-2.76 4c-.512.451-.994.937-1.44 1.454a2.984 2.984 0 0 1-1.746.72 3.999 3.999 0 0 1-2.307-1.44 23.257 23.257 0 0 1-3.48-6.52 53.884 53.884 0 0 1-2.027-7.534 26.638 26.638 0 0 1-.6-4.84 10.874 10.874 0 0 1 .72-4.92.275.275 0 0 1-.067-.32.293.293 0 0 1 .067-.093Zm32.867-3.187c1.334.44 2.747 1.16 4 1.747.44.146.574.426.44 1.013-.133.587-.44.867-1.013.867-1.747.147-3.48.293-5.213.293a3.052 3.052 0 0 0-1.16.134c-.147 0-.294 0-.294.146-.573 2.32-1.16 4.64-1.733 6.814v.28a25.48 25.48 0 0 1 3.187-.134 19.98 19.98 0 0 1 2.746.134c.393.079.749.285 1.014.586.562.404 1.092.85 1.586 1.334.021.295-.025.59-.133.866a1.107 1.107 0 0 1-1.013 1.16c-.88.28-1.747.427-2.467.72-1.653.426-3.366.57-5.067.427h-.293c-.573-.133-.867.147-.867.733a27.98 27.98 0 0 0-.293 3.334c-.025.723.025 1.447.147 2.16.72-.28 1.453-.427 2.026-.72a51.632 51.632 0 0 0 2.76-1.44 2.922 2.922 0 0 1 3.907.426c.573.44 1.013.867 1.587 1.334.293.146.293.293.293.573-.005.48-.159.945-.44 1.333a8.67 8.67 0 0 1-3.613 2.894c-1.138.41-2.3.75-3.48 1.013a10.916 10.916 0 0 1-2.174-.147 7.012 7.012 0 0 1-2.893-.72 6.212 6.212 0 0 1-3.613-2.746 11.131 11.131 0 0 1-1.747-7.094c.147-1.16.44-2.173.587-3.186a53.09 53.09 0 0 1 1.16-5.334c.355-1.24.8-2.452 1.333-3.627a2.05 2.05 0 0 0-.133-2.026 1.332 1.332 0 0 1 .426-2.307 9.175 9.175 0 0 1 4.347-1.453c2.043.066 4.078.27 6.093.613Zm17.227 1.013a21.07 21.07 0 0 1 6.947 4 7.61 7.61 0 0 1 2.467 6.227 3.723 3.723 0 0 1-1.334 2.467 19.578 19.578 0 0 1-3.613 2.32l-1.334.867a39.32 39.32 0 0 0 4.774 2.6c1.747.88 3.627 1.6 5.507 2.466a2.663 2.663 0 0 1 1.733 1.734c0 .146.147.293.293.44l.44.426c.28.44.147.734-.293.88a3.603 3.603 0 0 1-3.187.574 18.486 18.486 0 0 0-2.893-.574 16.34 16.34 0 0 1-5.067-1.746c-1.88-1.014-3.627-2.174-5.507-3.187-.293-.133-.426-.28-.573-.28-.147 0-.587 0-.44.28 0 .733-.147 1.453-.147 2.027-.146 1.6-.28 3.04-.28 4.64a1.334 1.334 0 0 1-1.333 1.16h-2.04a1.96 1.96 0 0 1-1.88-1.014 6.814 6.814 0 0 1-1.733-4 98.049 98.049 0 0 1-.88-9.333c0-1.88 0-3.627.146-5.507a.73.73 0 0 0-.293-.573 2.661 2.661 0 0 1-1.013-1.16 1.685 1.685 0 0 1-.54-1.233 1.677 1.677 0 0 1 .54-1.234 8.157 8.157 0 0 1 2.666-2.32 13.149 13.149 0 0 1 6.08-1.88c.953.234 1.885.547 2.787.933Zm-2.173 5.067a1.2 1.2 0 0 0-.574 1.16v2.467c-.024.87.025 1.739.147 2.6 0 .44.147.733.427.733a6.906 6.906 0 0 0 4.64-3.626 2.128 2.128 0 0 0 0-1.88 3.292 3.292 0 0 0-2.027-1.587 3.906 3.906 0 0 0-2.613.133Zm-57.481 9.107a16.204 16.204 0 0 0-5.64-4.347 60.897 60.897 0 0 0-.146 7.387v3.32a29.674 29.674 0 0 1-.147 3.04 2.588 2.588 0 0 0 1.587-.72c.586-.293 1.013-.72 1.6-1.013a23.288 23.288 0 0 0 2.893-2.454c1.453-1.866 1.453-3.6-.147-5.213Z" fill="#000"/></g><defs><clipPath id="a"><path fill="#fff" transform="translate(47 45)" d="M0 0h240.151v48.907H0z"/></clipPath></defs></svg>