<svg width="335" height="140" fill="none" xmlns="http://www.w3.org/2000/svg"><mask id="a" style="mask-type:luminance" maskUnits="userSpaceOnUse" x="88" y="40" width="158" height="60"><path d="M246 40H88v60h158V40Z" fill="#fff"/></mask><g mask="url(#a)" fill="#fff"><path fill-rule="evenodd" clip-rule="evenodd" d="M116.727 54.022c0 7.744-6.431 14.022-14.363 14.022-.302 0-.601-.01-.898-.027V58.08c.289.064.589.098.898.098 2.231 0 4.039-1.786 4.039-3.99s-1.808-3.99-4.039-3.99-4.04 1.786-4.04 3.99V77.246H88V54.022C88 46.278 94.43 40 102.364 40c7.932 0 14.363 6.278 14.363 14.022ZM246 54.022c0 7.744-6.431 14.022-14.364 14.022-.301 0-.601-.01-.898-.027V58.08c.289.064.59.098.898.098 2.231 0 4.04-1.786 4.04-3.99s-1.809-3.99-4.04-3.99-4.04 1.786-4.04 3.99V77.246h-10.324V54.022c0-7.744 6.431-14.022 14.364-14.022C239.569 40 246 46.278 246 54.022Z"/><path d="M130.193 45.1c0 1.338-.551 2.677-1.504 3.605-.952.978-2.255 1.493-3.658 1.493a5.205 5.205 0 0 1-3.658-1.493c-.953-.98-1.504-2.267-1.504-3.606 0-1.34.551-2.678 1.504-3.605.952-.979 2.255-1.494 3.658-1.494 1.353 0 2.656.515 3.658 1.494.953.927 1.504 2.266 1.504 3.605ZM130.193 52.859h-10.324v24.387h10.324V52.859ZM182.262 63.5V53.302h-17.057V63.5h17.057Z"/><path fill-rule="evenodd" clip-rule="evenodd" d="M162.062 77.246V54.05c0-7.76-6.453-14.05-14.311-14.05-7.963 0-14.416 6.29-14.416 14.05v23.196h10.324V54.355l.001-.082-.001-.084c0-2.204 1.809-3.99 4.04-3.99s4.039 1.786 4.039 3.99v23.056h10.324ZM214.131 40.443v22.752c0 7.76-6.453 14.05-14.312 14.05-7.962 0-14.415-6.29-14.415-14.05V40.443h10.324v22.614c0 2.204 1.808 3.99 4.039 3.99 2.232 0 4.04-1.786 4.04-3.99l-.001-.085.001-.081V40.443h10.324ZM236.916 82.053H88v8.973c0 4.956 4.067 8.974 9.084 8.974H236.916c5.017 0 9.084-4.018 9.084-8.974v-8.973h-9.084Zm-98.8 9.006c0-.122-.01-.238-.031-.35h-4.806v1.598h3.112c-.134.76-.447 1.354-.94 1.78-.483.416-1.135.624-1.956.624-.473 0-.909-.086-1.31-.258a3.125 3.125 0 0 1-1.017-.716 3.455 3.455 0 0 1-.647-1.095 4.045 4.045 0 0 1-.231-1.385c0-.497.077-.959.231-1.385.165-.426.386-.791.663-1.096a3.104 3.104 0 0 1 1.017-.715c.4-.172.837-.258 1.309-.258.575 0 1.083.126 1.525.38a2.82 2.82 0 0 1 1.032.99l1.402-.975a4.413 4.413 0 0 0-1.587-1.476c-.657-.385-1.448-.578-2.372-.578-.739 0-1.422.132-2.049.395a4.798 4.798 0 0 0-1.602 1.066c-.442.456-.791 1-1.047 1.628a5.41 5.41 0 0 0-.37 2.024c0 .73.118 1.41.354 2.04.236.618.57 1.156 1.001 1.612.442.457.971.817 1.587 1.08.627.254 1.33.381 2.111.381.718 0 1.366-.117 1.941-.35a4.253 4.253 0 0 0 1.463-1.004c.401-.426.704-.934.909-1.522a5.792 5.792 0 0 0 .324-1.978c0-.193-.006-.345-.016-.457Zm12.464 5.128v-1.72h-4.129v-8.11h-1.894v9.83h6.023Zm10.512.183c-.781 0-1.484-.132-2.111-.396a4.784 4.784 0 0 1-1.602-1.08 4.706 4.706 0 0 1-1.016-1.613 5.691 5.691 0 0 1-.355-2.024c0-.71.124-1.375.37-1.994a4.938 4.938 0 0 1 1.063-1.628 4.877 4.877 0 0 1 1.602-1.096 5.228 5.228 0 0 1 2.049-.395c.78 0 1.484.132 2.11.395a4.678 4.678 0 0 1 2.635 2.724c.236.62.354 1.284.354 1.994 0 .72-.128 1.395-.385 2.024a4.785 4.785 0 0 1-1.048 1.613 4.952 4.952 0 0 1-1.617 1.08 5.23 5.23 0 0 1-2.049.396Zm0-1.69c.483 0 .919-.085 1.309-.258.401-.182.74-.426 1.017-.73.277-.304.493-.665.647-1.08.154-.417.231-.868.231-1.355a3.87 3.87 0 0 0-.231-1.354 3.276 3.276 0 0 0-.647-1.08 2.908 2.908 0 0 0-1.017-.716 3.047 3.047 0 0 0-1.309-.274c-.483 0-.919.091-1.309.274-.391.172-.724.41-1.002.715a3.276 3.276 0 0 0-.647 1.08 3.87 3.87 0 0 0-.231 1.355c0 .487.077.938.231 1.354.154.416.37.776.647 1.08.278.305.611.549 1.002.731.39.173.826.259 1.309.259Zm17.642-2.951c-.339-.406-.786-.685-1.34-.837.39-.203.688-.467.893-.792.206-.324.308-.72.308-1.187v-.06c0-.792-.272-1.405-.816-1.842-.534-.436-1.31-.654-2.326-.654h-2.773v9.83h2.896c1.212 0 2.126-.248 2.742-.745.616-.507.924-1.207.924-2.1v-.061c0-.64-.169-1.157-.508-1.552Zm-3.451-1.278h-.785v-2.648h.785c1.027 0 1.541.42 1.541 1.263v.091c0 .386-.129.7-.385.943-.257.234-.642.35-1.156.35Zm1.71 3.926c-.287.243-.75.365-1.386.365h-1.109v-2.846l1.186-.015c.606 0 1.047.132 1.325.396.277.263.416.608.416 1.034 0 .457-.144.812-.432 1.066Zm14.295-.32h-4.051l-.863 2.13h-1.91l4.375-9.997h.832l4.421 9.997h-1.941l-.863-2.13Zm-.631-1.552-1.387-3.47-1.402 3.47h2.789Zm15.327 3.682v-1.72h-4.129v-8.11h-1.895v9.83h6.024Z"/></g></svg>