<svg width="335" height="140" fill="none" xmlns="http://www.w3.org/2000/svg"><path d="M158.915 61.463c-2.049-1.96-4.707-2.962-8.018-2.962-3.312 0-5.971 1.045-8.063 3.093-2.048 2.048-3.094 4.618-3.094 7.711 0 3.268 1.046 5.882 3.094 7.886 2.092 1.961 4.751 2.963 8.019 2.963 3.225 0 5.883-1.002 7.975-3.05 1.046-1.002 1.874-2.178 2.397-3.485.523-1.307.784-2.745.784-4.314.044-3.224-1.002-5.838-3.094-7.842Zm-3.356 12.635c-1.133 1.22-2.658 1.83-4.662 1.83-1.743 0-3.356-.61-4.576-1.874-1.22-1.307-1.743-2.875-1.743-4.749 0-1.917.61-3.529 1.786-4.749 1.177-1.22 2.702-1.83 4.533-1.83 1.743 0 3.268.61 4.488 1.83 1.22 1.22 1.787 2.789 1.787 4.75.043 1.96-.523 3.529-1.613 4.792ZM176.042 67.911h-5.927V63.12h6.842c.348 0 .61-.262.61-.61v-3.05a.596.596 0 0 0-.61-.61h-10.808a.595.595 0 0 0-.61.61v19.737c0 .348.261.61.61.61h3.356c.348 0 .61-.262.61-.61V72.18h5.927c.348 0 .61-.261.61-.61v-3.05c-.044-.305-.305-.61-.61-.61ZM186.022 63.119v16.12c0 .349.261.61.61.61h3.355c.349 0 .61-.261.61-.61V63.12h5.796c.349 0 .61-.262.61-.61v-3.05a.595.595 0 0 0-.61-.61h-16.124a.595.595 0 0 0-.61.61v3.05c0 .348.261.61.61.61h5.753ZM205.022 71.179c1.046.48 1.83 1.002 2.397 1.481.523.48.828.959.828 1.482a1.72 1.72 0 0 1-.61 1.35c-.393.305-.916.48-1.569.48-.872 0-1.7-.218-2.571-.61-.61-.305-1.133-.654-1.569-1.09a.583.583 0 0 0-.872.044l-1.873 2.265a.59.59 0 0 0-.044.697c.523.828 1.351 1.482 2.484 2.005 1.351.61 2.789.915 4.314.915 2.092 0 3.748-.567 5.099-1.743 1.133-.871 1.874-2.135 2.005-3.53.13-1.437-.088-2.613-.611-3.615-.435-.828-.958-1.438-1.568-1.874-.654-.48-1.352-.871-2.092-1.307-.785-.392-1.482-.74-2.136-1.002-.654-.305-1.22-.653-1.7-1.09-.435-.435-.697-.958-.697-1.568 0-.522.218-.958.611-1.263.435-.305 1.002-.436 1.655-.436.698 0 1.264.087 1.744.305.305.13.61.349.958.61.262.218.654.174.872-.13l1.743-2.44c.175-.262.131-.61-.087-.785-1.394-1.22-3.268-1.83-5.665-1.83-2.049 0-3.661.567-4.881 1.743-1.22 1.177-1.83 2.57-1.83 4.226 0 .741.087 1.438.305 2.092.261.653.566 1.22.871 1.612a6.35 6.35 0 0 0 1.351 1.263c.567.392 1.046.74 1.482.959.479.305 1.046.523 1.656.784ZM225.504 79.413l4.358-13.593 4.401 13.593c.087.262.305.392.567.392h3.529c.262 0 .48-.174.567-.435l5.578-19.737c.087-.392-.174-.74-.567-.74H240.8c-.262 0-.523.174-.567.435l-3.617 13.376-4.096-13.376c-.087-.261-.305-.435-.566-.435h-3.792c-.261 0-.479.174-.566.435l-3.966 13.42-3.574-13.376c-.087-.262-.305-.436-.566-.436h-3.922c-.392 0-.697.392-.567.74l5.84 19.737c.087.262.305.436.566.436h3.53c.218 0 .479-.174.567-.436ZM248.513 79.85h3.356c.348 0 .61-.262.61-.61V59.46a.596.596 0 0 0-.61-.61h-3.356a.596.596 0 0 0-.61.61v19.736c0 .348.262.653.61.653ZM262.416 71.18c1.046.478 1.83 1.001 2.397 1.48.523.48.828.959.828 1.482 0 .566-.218 1.002-.61 1.35-.392.305-.915.48-1.569.48-.872 0-1.7-.218-2.571-.61-.61-.305-1.133-.654-1.569-1.09a.582.582 0 0 0-.871.044l-1.874 2.266a.59.59 0 0 0-.044.697c.523.827 1.351 1.48 2.484 2.004a10.36 10.36 0 0 0 4.314.915c2.092 0 3.748-.567 5.099-1.743l.218-.174c1.133-1.09 1.83-2.57 1.83-4.096 0-1.089-.218-2.047-.653-2.832-.436-.828-.959-1.437-1.569-1.873-.654-.48-1.351-.871-2.092-1.307-.785-.392-1.482-.74-2.136-1.002-.653-.305-1.22-.654-1.699-1.09-.436-.435-.697-.958-.697-1.568 0-.523.218-.958.61-1.263.436-.305 1.002-.436 1.656-.436.697 0 1.264.087 1.743.305.305.13.61.348.959.61.261.218.653.174.871-.13l1.743-2.44c.175-.262.131-.61-.087-.785-1.394-1.22-3.268-1.83-5.665-1.83-2.048 0-3.661.567-4.881 1.743-1.22 1.176-1.83 2.57-1.83 4.226 0 .74.087 1.438.305 2.091.261.654.567 1.22.872 1.612.348.436.784.872 1.351 1.264.566.392 1.045.74 1.481.958.48.262 1.046.48 1.656.741ZM278.496 71.18c1.045.478 1.83 1.001 2.396 1.48.523.48.829.959.829 1.482 0 .566-.218 1.002-.611 1.35-.392.305-.915.48-1.569.48-.871 0-1.699-.218-2.571-.61-.61-.305-1.133-.654-1.569-1.09a.582.582 0 0 0-.871.044l-1.874 2.266a.59.59 0 0 0-.044.697c.523.827 1.351 1.48 2.484 2.004 1.351.61 2.789.915 4.315.915 2.092 0 3.748-.567 5.098-1.743l.218-.174c1.133-1.09 1.831-2.57 1.831-4.096 0-1.089-.218-2.047-.654-2.832-.436-.828-.959-1.437-1.569-1.873-.653-.48-1.351-.871-2.092-1.307-.784-.392-1.481-.74-2.135-1.002-.654-.305-1.22-.654-1.7-1.09-.435-.435-.697-.958-.697-1.568 0-.523.218-.958.61-1.263.436-.305 1.003-.436 1.656-.436.698 0 1.264.087 1.744.305.304.13.61.348.958.61.262.218.654.174.872-.13l1.743-2.44c.174-.262.13-.61-.087-.785-1.395-1.22-3.269-1.83-5.666-1.83-2.048 0-3.66.567-4.881 1.743-1.22 1.176-1.83 2.57-1.83 4.226 0 .74.087 1.438.305 2.091.262.654.567 1.22.872 1.612.348.436.784.872 1.351 1.264.566.392 1.046.74 1.481.958.523.262 1.046.48 1.657.741ZM128.977 71.179c1.046.479 1.831 1.002 2.397 1.481.523.48.828.959.828 1.481 0 .567-.217 1.002-.61 1.351-.392.305-.915.48-1.569.48-.871 0-1.699-.218-2.571-.61-.61-.306-1.133-.654-1.569-1.09a.582.582 0 0 0-.871.044l-1.874 2.265a.59.59 0 0 0-.044.697c.523.828 1.351 1.482 2.484 2.004 1.351.61 2.789.915 4.315.915 2.091 0 3.747-.566 5.098-1.742l.175-.175c1.133-1.089 1.83-2.57 1.873-4.139 0-1.089-.217-2.047-.653-2.875-.436-.828-.959-1.438-1.569-1.874-.654-.479-1.351-.87-2.092-1.307-.784-.392-1.481-.74-2.135-1.002-.654-.305-1.22-.653-1.7-1.089-.436-.436-.697-.958-.697-1.568 0-.523.218-.959.61-1.264.436-.305 1.002-.435 1.656-.435.697 0 1.264.087 1.743.305.305.13.61.348.959.61.262.217.654.174.872-.131l1.743-2.44c.174-.261.13-.61-.087-.784-1.395-1.22-3.269-1.83-5.666-1.83-2.048 0-3.66.566-4.881 1.742-1.22 1.177-1.83 2.571-1.83 4.227 0 .74.087 1.437.305 2.09.261.654.566 1.22.872 1.613.348.436.784.871 1.351 1.263.566.393 1.046.741 1.481.959.523.349 1.046.566 1.656.828ZM72.279 64.972 60.687 76.56l-7.06-7.058 7.06-7.058 2.091 2.091c.523.523 1.22.828 1.962.828.74 0 1.438-.305 1.96-.828l3.007-3.006c1.09-1.09 1.09-2.832 0-3.878l-7.06-7.014a2.773 2.773 0 0 0-1.96-.828c-.741 0-1.438.305-1.961.828L41.817 67.542c-1.09 1.09-1.09 2.832 0 3.878L58.77 88.368c.523.523 1.22.828 1.961.828.741 0 1.438-.305 1.961-.828L77.16 73.86l2.005-2.004-6.885-6.884Z" fill="#fff"/><path d="M107.489 71.464 90.536 88.412a2.772 2.772 0 0 1-1.96.828c-.741 0-1.438-.305-1.961-.828l-6.973-7.058c-1.09-1.09-1.09-2.832 0-3.878l3.007-3.006c.523-.523 1.22-.784 1.96-.784.742 0 1.439.305 1.962.784l1.96 1.96.131.131 7.06-7.058-7.103-7.058-10.502 10.5-.131.13a4.753 4.753 0 0 1-3.312 1.308 4.847 4.847 0 0 1-3.443-1.438 4.845 4.845 0 0 1-1.438-3.442c0-1.263.436-2.396 1.307-3.311l.131-.13.044-.044.043-.044 15.384-15.38a2.772 2.772 0 0 1 1.96-.827c.741 0 1.438.305 1.962.827l16.952 16.949a2.845 2.845 0 0 1-.087 3.92Z" fill="#fff"/></svg>