<svg width="335" height="140" fill="none" xmlns="http://www.w3.org/2000/svg"><mask id="a" style="mask-type:luminance" maskUnits="userSpaceOnUse" x="82" y="33" width="171" height="74"><path d="M252.717 33H82v73.091h170.717V33Z" fill="#fff"/></mask><g mask="url(#a)" fill="#fff"><path d="M114.525 61.888c-.649-.541-1.456-.953-2.436-1.224a9.48 9.48 0 0 0-2.872-.464 7.205 7.205 0 0 0-2.871.567 6.634 6.634 0 0 0-2.277 1.482c-.609.606-1.098 1.354-1.456 2.243a7.566 7.566 0 0 0-.542 2.862 6.94 6.94 0 0 0 .595 2.862c.397.89.94 1.65 1.628 2.294a8.546 8.546 0 0 0 2.382 1.483c.94.335 1.933.516 2.978.516 1.231 0 2.343-.233 3.349-.71 1.005-.515 1.879-1.185 2.594-2.036h-3.243v-7.18h13.896V75.9a19.994 19.994 0 0 1-2.977 3.828 18.706 18.706 0 0 1-3.891 2.9 18.684 18.684 0 0 1-4.593 1.883 20.014 20.014 0 0 1-5.135.657c-2.594 0-5.042-.464-7.358-1.38-2.303-.914-4.328-2.178-6.062-3.776a18.16 18.16 0 0 1-4.05-5.66c-.979-2.178-1.456-4.524-1.456-7.038 0-2.449.464-4.756 1.403-6.935a17.79 17.79 0 0 1 3.838-5.659c1.655-1.637 3.6-2.9 5.837-3.828 2.276-.954 4.698-1.431 7.306-1.431 2.024 0 3.771.193 5.241.567 1.482.374 2.726.8 3.732 1.276 1.191.541 2.183 1.134 2.977 1.779l-6.537 8.804ZM129.254 50.312h12.004v25.086h9.953v8.92h-21.957V50.312ZM150.668 67.341c0-2.45.49-4.757 1.456-6.935a18.162 18.162 0 0 1 4.05-5.66c1.733-1.636 3.745-2.9 6.061-3.828 2.303-.954 4.765-1.43 7.359-1.43 2.594 0 5.042.476 7.358 1.43 2.303.915 4.301 2.192 6.009 3.829a16.97 16.97 0 0 1 4.049 5.659 16.332 16.332 0 0 1 1.509 6.935c0 2.45-.503 4.757-1.509 6.935a17.974 17.974 0 0 1-4.049 5.711c-1.694 1.599-3.693 2.875-6.009 3.829-2.303.915-4.764 1.379-7.358 1.379-2.594 0-5.043-.464-7.359-1.38-2.303-.953-4.328-2.23-6.061-3.828a18.848 18.848 0 0 1-4.05-5.71 16.91 16.91 0 0 1-1.456-6.936Zm11.355 0c0 .98.199 1.92.596 2.81.397.851.94 1.599 1.628 2.243a7.879 7.879 0 0 0 2.382 1.534c.94.374 1.932.568 2.978.568a7.57 7.57 0 0 0 2.925-.568 7.675 7.675 0 0 0 2.435-1.534 7.246 7.246 0 0 0 1.628-2.243 6.79 6.79 0 0 0 .595-2.81c0-.992-.198-1.908-.595-2.758a7.03 7.03 0 0 0-1.628-2.295 7.673 7.673 0 0 0-2.435-1.534 7.571 7.571 0 0 0-2.925-.567 7.987 7.987 0 0 0-2.978.567c-.9.374-1.694.89-2.382 1.534a7.03 7.03 0 0 0-1.628 2.294 6.43 6.43 0 0 0-.596 2.76ZM191.51 50.312h12.441c2.303 0 4.434.284 6.379.864 1.986.58 3.692 1.43 5.135 2.552a11.464 11.464 0 0 1 3.349 4.177c.833 1.637 1.243 3.52 1.243 5.659 0 1.702-.251 3.145-.754 4.331-.503 1.186-1.059 2.179-1.681 2.952a10.98 10.98 0 0 1-2.435 2.243l6.763 11.215h-13.513l-5.412-8.61v8.61H191.51V50.312Zm11.515 16.72h.594c1.377 0 2.529-.284 3.456-.864.966-.58 1.455-1.547 1.455-2.9 0-1.354-.489-2.334-1.455-2.9-.94-.581-2.092-.865-3.456-.865h-.594v7.529Z"/><path fill-rule="evenodd" clip-rule="evenodd" d="M81.835 43.79c-.212-.297-.133-.71.211-.864 1.443-.632 2.383-.065 2.925.631.265.336.768.452 1.165.297.053-.026.119-.039.172-.064 1.35-.4 2.806.36 3.23 1.701.25.8.092 1.611-.358 2.243-.278.374-.265.954.172 1.135a6.385 6.385 0 0 0 4.248.193c2.33-.696 3.944-2.591 4.354-4.808.04-.232-.225-.4-.463-.335-1.218.36-2.528-.323-2.911-1.534a2.25 2.25 0 0 1 1.508-2.85c.172-.051.344-.077.503-.09.12-.013.186-.154.106-.245a2.313 2.313 0 0 1-.437-.786 2.255 2.255 0 0 1-.106-.89 2.207 2.207 0 0 1 .82-1.534c.24-.193.504-.334.795-.412a2.358 2.358 0 0 1 1.774.168c.264.142.516.335.701.567a2.313 2.313 0 0 1 .543 1.676c-.014.103.132.193.225.142.145-.078.304-.155.476-.194 1.218-.36 2.528.322 2.912 1.534a2.252 2.252 0 0 1-1.509 2.849c-.238.065-.357.361-.185.529 1.641 1.598 4.089 2.294 6.418 1.598a6.243 6.243 0 0 0 3.402-2.475c.264-.374-.066-.864-.516-1.018a2.623 2.623 0 0 1-1.615-1.663 2.484 2.484 0 0 1 1.668-3.159c.052-.012.119-.025.172-.038.423-.09.78-.477.794-.89.039-.863.489-1.843 2.051-2.1a.58.58 0 0 1 .675.605l-.159 15.185a24.806 24.806 0 0 0-1.786-.502c-1.589-.4-3.468-.593-5.625-.593-2.78 0-5.4.502-7.835 1.52-2.396.98-4.487 2.334-6.26 4.087a18.783 18.783 0 0 0-2.78 3.468L81.836 43.79Z"/><path d="m228.831 69.687-11.196-19.374h12.811l4.169 7.18 4.116-7.193h12.812l-11.197 19.374v14.631h-11.515V69.688ZM115.12 90.455c1.442 0 2.687.232 3.745.696 1.059.45 1.88 1.108 2.462 1.972.582.85.86 1.843.86 2.99 0 1.148-.291 2.153-.86 2.991-.582.851-1.39 1.496-2.462 1.973-1.058.451-2.316.683-3.745.683h-2.779v3.996h-4.5V90.455h7.279Zm-.278 7.902c.926 0 1.628-.194 2.091-.568.463-.4.701-.954.701-1.663 0-.709-.238-1.263-.701-1.662-.463-.4-1.165-.593-2.091-.593h-2.501v4.486h2.501ZM134.244 102.791h-6.723l-1.244 2.977h-4.593l7.028-15.301h4.433l7.041 15.301h-4.698l-1.244-2.977Zm-1.324-3.197-2.051-4.899-2.051 4.899h4.102ZM148.405 101.695h-2.462v4.061h-4.5V90.455h7.279c1.443 0 2.687.232 3.746.696 1.059.45 1.879 1.108 2.461 1.972.583.85.861 1.843.861 2.99 0 1.11-.278 2.076-.821 2.914-.529.812-1.297 1.457-2.289 1.921l3.427 4.808h-4.817l-2.885-4.061Zm2.845-5.569c0-.709-.238-1.263-.701-1.662-.463-.4-1.165-.593-2.091-.593h-2.502v4.486h2.502c.926 0 1.628-.194 2.091-.568.463-.4.701-.954.701-1.663ZM161.442 93.896h-4.884v-3.429h14.254v3.429h-4.871v11.872h-4.499V93.896ZM187.619 90.455v15.301h-3.706l-7.027-8.16v8.16h-4.407V90.455h3.705l7.028 8.16v-8.16h4.407ZM203.58 102.417v3.352h-12.771V90.455h12.48v3.351h-8.02v2.578h7.067v3.236h-7.067v2.797h8.311ZM213.03 101.695h-2.448v4.061h-4.5V90.455h7.279c1.443 0 2.686.232 3.745.696 1.059.45 1.88 1.108 2.448 1.972.582.85.861 1.843.861 2.99 0 1.11-.279 2.076-.821 2.914-.529.812-1.297 1.457-2.302 1.921l3.428 4.808h-4.818l-2.872-4.061Zm2.845-5.569c0-.709-.238-1.263-.701-1.662-.463-.4-1.165-.593-2.091-.593h-2.501v4.486h2.501c.926 0 1.628-.194 2.091-.568.463-.4.701-.954.701-1.663ZM228.488 106.065c-1.284 0-2.541-.155-3.745-.464-1.218-.309-2.197-.709-2.952-1.225l1.482-3.197c.715.452 1.536.813 2.476 1.096.94.271 1.866.413 2.779.413 1.734 0 2.594-.413 2.594-1.251 0-.438-.251-.76-.754-.966-.49-.22-1.27-.439-2.369-.684a26.122 26.122 0 0 1-3.004-.786 5.074 5.074 0 0 1-2.065-1.38c-.569-.631-.86-1.469-.86-2.539 0-.928.265-1.766.793-2.514.53-.76 1.324-1.353 2.37-1.791 1.058-.439 2.355-.658 3.891-.658 1.045 0 2.078.116 3.097.348 1.019.22 1.906.542 2.686.98l-1.389 3.21c-1.509-.787-2.991-1.186-4.408-1.186-.899 0-1.548.129-1.958.4-.411.244-.609.58-.609.98 0 .412.238.708.728.914.489.207 1.271.413 2.342.632 1.218.245 2.21.516 3.004.812.808.27 1.496.735 2.065 1.354.595.605.886 1.456.886 2.513 0 .916-.263 1.753-.793 2.488-.529.748-1.323 1.341-2.382 1.792-1.098.49-2.383.709-3.905.709Z"/></g></svg>