<svg width="335" height="140" fill="none" xmlns="http://www.w3.org/2000/svg"><g clip-path="url(#a)" fill="#fff"><path d="M103.251 38.41c3.127 0 5.514.572 7.161 1.716 1.668 1.144 2.502 2.891 2.502 5.242 0 2.932-1.449 4.919-4.347 5.959.396.478.845 1.06 1.345 1.747.5.686 1.011 1.435 1.532 2.246.522.79 1.022 1.612 1.501 2.465.48.832.907 1.654 1.283 2.465h-4.41a40.761 40.761 0 0 0-1.282-2.246 45.606 45.606 0 0 0-1.407-2.216 34.766 34.766 0 0 0-1.376-2.028 41.59 41.59 0 0 0-1.282-1.716c-.292.021-.543.032-.751.032h-2.502v8.174h-3.94V38.94c.959-.208 1.98-.343 3.065-.405a38.4 38.4 0 0 1 2.908-.125Zm.281 3.4c-.834 0-1.605.032-2.314.094v6.99h1.72c.959 0 1.804-.053 2.533-.157.73-.104 1.335-.291 1.814-.562.5-.27.876-.634 1.126-1.091.25-.458.375-1.04.375-1.748 0-.665-.125-1.227-.375-1.684a2.757 2.757 0 0 0-1.095-1.093c-.458-.27-1.011-.457-1.657-.561a11.234 11.234 0 0 0-2.127-.187ZM120.228 49.424c0 1.185.146 2.267.437 3.244.292.957.709 1.779 1.251 2.465a5.979 5.979 0 0 0 2.033 1.56c.792.375 1.689.562 2.689.562.98 0 1.866-.187 2.659-.562a5.67 5.67 0 0 0 2.001-1.56c.563-.686.99-1.508 1.282-2.465.292-.977.438-2.059.438-3.244 0-1.186-.146-2.257-.438-3.214-.292-.978-.719-1.8-1.282-2.465a5.524 5.524 0 0 0-2.001-1.591c-.793-.374-1.679-.562-2.659-.562-1 0-1.897.188-2.689.562a5.816 5.816 0 0 0-2.033 1.591c-.542.687-.959 1.508-1.251 2.465-.291.957-.437 2.028-.437 3.214Zm16.918 0c0 1.85-.281 3.484-.844 4.898-.542 1.414-1.293 2.6-2.252 3.557A9.237 9.237 0 0 1 130.735 60a11.451 11.451 0 0 1-4.065.718c-1.439 0-2.804-.24-4.097-.718a9.547 9.547 0 0 1-3.346-2.121c-.938-.957-1.689-2.143-2.252-3.557-.563-1.414-.844-3.047-.844-4.898 0-1.852.281-3.474.844-4.868.563-1.414 1.324-2.6 2.283-3.556a9.65 9.65 0 0 1 3.378-2.153 11.357 11.357 0 0 1 4.034-.718c1.417 0 2.762.24 4.034.718a9.04 9.04 0 0 1 3.315 2.152c.959.957 1.72 2.143 2.283 3.557.563 1.394.844 3.016.844 4.868ZM147.625 48.207c.938-1.56 1.856-3.141 2.752-4.743a61.743 61.743 0 0 0 2.44-4.836h4.378a187.22 187.22 0 0 1-3.659 6.583 143.596 143.596 0 0 1-4.034 6.552v8.487h-3.941v-8.424a167.924 167.924 0 0 1-4.065-6.615 185.614 185.614 0 0 1-3.659-6.583h4.628a69.977 69.977 0 0 0 2.408 4.836 108.16 108.16 0 0 0 2.752 4.743ZM172.04 60.25a89.7 89.7 0 0 0-.907-2.527 74.991 74.991 0 0 1-.907-2.559h-9.131a94.012 94.012 0 0 1-.907 2.59l-.876 2.496h-4.096a364.44 364.44 0 0 1 2.314-6.396 326.55 326.55 0 0 1 2.126-5.554 216.764 216.764 0 0 1 2.096-4.992c.688-1.58 1.396-3.14 2.126-4.68h3.722a152.927 152.927 0 0 1 4.19 9.672 212.082 212.082 0 0 1 2.158 5.554 246.87 246.87 0 0 1 2.345 6.396h-4.253Zm-6.379-17.441a132.767 132.767 0 0 0-1.658 4.025c-.604 1.58-1.24 3.297-1.907 5.148h7.13a211.363 211.363 0 0 0-1.939-5.18 126.996 126.996 0 0 0-1.626-3.993ZM192.73 56.849v3.4h-13.697V38.63h3.94v18.22h9.757ZM103.407 65.71c3.148 0 5.556.572 7.224 1.716 1.689 1.144 2.533 2.933 2.533 5.366 0 1.27-.229 2.361-.688 3.276a5.652 5.652 0 0 1-1.939 2.216c-.854.561-1.897.977-3.127 1.248-1.23.27-2.637.405-4.222.405h-1.97v7.613h-3.94V66.24a18.457 18.457 0 0 1 3.033-.405 42.277 42.277 0 0 1 3.096-.125Zm.282 3.4a26.6 26.6 0 0 0-2.471.094v7.364h1.908c1.897 0 3.356-.26 4.378-.78 1.022-.541 1.532-1.55 1.532-3.027 0-.707-.135-1.3-.406-1.778a2.915 2.915 0 0 0-1.126-1.123c-.48-.27-1.053-.458-1.72-.562a11.054 11.054 0 0 0-2.095-.187ZM129.743 87.55a89.7 89.7 0 0 0-.907-2.527 72.894 72.894 0 0 1-.907-2.559h-9.132a94.012 94.012 0 0 1-.907 2.59l-.875 2.496h-4.097a364.44 364.44 0 0 1 2.314-6.396c.73-1.955 1.439-3.807 2.127-5.554a216.866 216.866 0 0 1 2.095-4.992c.688-1.58 1.397-3.14 2.127-4.68h3.721a152.927 152.927 0 0 1 4.191 9.672 212.176 212.176 0 0 1 2.157 5.554 243.06 243.06 0 0 1 2.346 6.396h-4.253Zm-6.38-17.441a133.042 133.042 0 0 0-1.657 4.025 279.984 279.984 0 0 0-1.908 5.148h7.13a207.334 207.334 0 0 0-1.939-5.18 122.313 122.313 0 0 0-1.626-3.993ZM142.708 65.71c3.127 0 5.515.572 7.162 1.716 1.668 1.144 2.501 2.891 2.501 5.242 0 2.932-1.448 4.919-4.346 5.959.396.478.844 1.06 1.344 1.747a46.48 46.48 0 0 1 1.533 2.246c.521.79 1.021 1.612 1.501 2.465a31.13 31.13 0 0 1 1.282 2.465h-4.41a40.761 40.761 0 0 0-1.282-2.246 44.127 44.127 0 0 0-1.407-2.216 34.274 34.274 0 0 0-1.376-2.028 41.59 41.59 0 0 0-1.282-1.716c-.292.021-.542.032-.751.032h-2.502v8.174h-3.94V66.24a19.84 19.84 0 0 1 3.065-.405 38.4 38.4 0 0 1 2.908-.125Zm.282 3.4c-.834 0-1.606.032-2.315.094v6.99h1.72c.96 0 1.804-.053 2.534-.157.729-.104 1.334-.291 1.813-.561a2.71 2.71 0 0 0 1.126-1.092c.25-.458.375-1.04.375-1.748 0-.665-.125-1.227-.375-1.684a2.761 2.761 0 0 0-1.094-1.092c-.459-.27-1.011-.458-1.658-.562a11.23 11.23 0 0 0-2.126-.187ZM171.843 65.928v3.401h-6.661v18.22h-3.971V69.33h-6.661v-3.4h17.293ZM189.453 87.55a125.276 125.276 0 0 0-2.377-3.807 154.465 154.465 0 0 0-2.72-4.118 86.97 86.97 0 0 0-2.878-4.025 65.937 65.937 0 0 0-2.752-3.525V87.55h-3.877V65.928h3.221c.834.874 1.73 1.914 2.689 3.12a115.437 115.437 0 0 1 2.877 3.713c.98 1.29 1.918 2.59 2.815 3.9a79.73 79.73 0 0 1 2.439 3.62V65.927h3.909V87.55h-3.346ZM197.998 87.55V65.928h13.916v3.339h-9.976v5.335h8.882v3.276h-8.882v6.333h10.727v3.339h-14.667ZM222.295 65.71c3.128 0 5.515.572 7.162 1.716 1.668 1.144 2.502 2.891 2.502 5.242 0 2.932-1.449 4.919-4.347 5.959.396.478.844 1.06 1.344 1.747a45.768 45.768 0 0 1 1.533 2.246c.521.79 1.021 1.612 1.501 2.465a31.13 31.13 0 0 1 1.282 2.465h-4.409a40.785 40.785 0 0 0-1.283-2.246 44.127 44.127 0 0 0-1.407-2.216 33.795 33.795 0 0 0-1.376-2.028 40.702 40.702 0 0 0-1.282-1.716c-.292.021-.542.032-.751.032h-2.501v8.174h-3.941V66.24a19.84 19.84 0 0 1 3.065-.405 38.421 38.421 0 0 1 2.908-.125Zm.282 3.4c-.834 0-1.606.032-2.314.094v6.99h1.72c.959 0 1.803-.053 2.533-.157.729-.104 1.334-.291 1.814-.561.5-.27.875-.635 1.125-1.092.251-.458.376-1.04.376-1.748 0-.665-.125-1.227-.376-1.684a2.761 2.761 0 0 0-1.094-1.092c-.459-.27-1.011-.458-1.658-.562a11.23 11.23 0 0 0-2.126-.187ZM241.579 84.617c1.418 0 2.45-.24 3.096-.718.646-.478.969-1.154.969-2.028 0-.52-.114-.967-.344-1.341-.208-.375-.521-.707-.938-.999-.396-.312-.886-.592-1.47-.842-.583-.27-1.25-.53-2.001-.78-.751-.27-1.48-.562-2.189-.874a8.1 8.1 0 0 1-1.845-1.216 5.871 5.871 0 0 1-1.282-1.716c-.313-.666-.469-1.467-.469-2.403 0-1.955.677-3.484 2.032-4.586 1.355-1.123 3.201-1.685 5.536-1.685 1.355 0 2.553.156 3.596.468 1.063.291 1.897.614 2.502.967l-1.22 3.183a9.322 9.322 0 0 0-2.345-.905c-.834-.208-1.7-.312-2.596-.312-1.063 0-1.897.218-2.502.655-.584.437-.875 1.05-.875 1.84 0 .48.093.895.281 1.249.208.333.49.634.844.905.376.27.803.52 1.283.748.5.23 1.042.448 1.626.656 1.021.374 1.928.759 2.72 1.154.814.374 1.491.832 2.033 1.373.563.52.99 1.144 1.282 1.872.292.707.438 1.57.438 2.59 0 1.955-.698 3.473-2.095 4.555-1.376 1.06-3.398 1.59-6.067 1.59-.896 0-1.72-.062-2.471-.186a14.906 14.906 0 0 1-1.97-.406 17.045 17.045 0 0 1-1.47-.5c-.417-.186-.75-.353-1-.498l1.157-3.214c.563.312 1.324.624 2.283.936.959.312 2.116.468 3.471.468ZM88.167 38.8h-5.538a.65.65 0 0 0-.652.65V86.9c0 .359.292.65.652.65h5.538a.65.65 0 0 0 .651-.65V39.45a.65.65 0 0 0-.651-.65Z"/><path d="M88.167 38.8h-5.538a.65.65 0 0 0-.652.65V86.9c0 .359.292.65.652.65h5.538a.65.65 0 0 0 .651-.65V39.45a.65.65 0 0 0-.651-.65ZM105.379 108.758a62.445 62.445 0 0 1-.517-1.422c-.162-.474-.329-.954-.501-1.439h-5.074l-1.018 2.861h-1.633a310.794 310.794 0 0 1 2.311-6.157c.367-.905.728-1.767 1.083-2.586a63.66 63.66 0 0 1 1.115-2.456h1.438c.388.808.76 1.626 1.116 2.456.355.819.71 1.681 1.066 2.586.366.905.738 1.863 1.115 2.876.377 1.002.781 2.095 1.212 3.281h-1.713Zm-1.47-4.154a121.4 121.4 0 0 0-1.035-2.714 42.801 42.801 0 0 0-1.05-2.538 42.735 42.735 0 0 0-1.083 2.538c-.334.872-.668 1.777-1.002 2.714h4.17ZM108.612 108.758v-11.2h6.755V98.9h-5.187v3.377h4.606v1.326h-4.606v5.155h-1.568ZM117.292 108.758v-11.2h6.755V98.9h-5.187v3.377h4.605v1.326h-4.605v5.155h-1.568ZM125.972 97.559h1.567v11.199h-1.567v-11.2ZM137.051 107.4v1.358h-6.739v-11.2h1.567v9.842h5.172ZM150.532 108.758a62.562 62.562 0 0 1-.518-1.422c-.161-.474-.328-.954-.5-1.439h-5.075l-1.018 2.861h-1.632a310.678 310.678 0 0 1 2.311-6.157c.366-.905.727-1.767 1.083-2.586.355-.83.727-1.648 1.115-2.456h1.438a79.54 79.54 0 0 1 2.181 5.042c.367.905.739 1.863 1.116 2.876.377 1.002.781 2.095 1.212 3.281h-1.713Zm-1.471-4.154c-.345-.937-.689-1.842-1.034-2.714a42.137 42.137 0 0 0-1.051-2.538 42.085 42.085 0 0 0-1.082 2.538c-.334.872-.668 1.777-1.002 2.714h4.169ZM160.206 97.559v1.357h-3.523v9.842h-1.568v-9.842h-3.523V97.56h8.614ZM161.861 108.758v-11.2h6.836V98.9h-5.269v3.329h4.687v1.309h-4.687v3.878h5.673v1.342h-7.24ZM177.807 97.446c1.573 0 2.779.301 3.62.904.851.593 1.276 1.482 1.276 2.667 0 .646-.118 1.201-.355 1.664-.227.453-.56.825-1.002 1.115-.431.281-.959.485-1.584.615-.625.129-1.33.194-2.117.194h-1.244v4.153h-1.568V97.72a8.331 8.331 0 0 1 1.471-.21c.549-.043 1.05-.064 1.503-.064Zm.129 1.373c-.668 0-1.18.016-1.535.049v4.395h1.18a9.82 9.82 0 0 0 1.454-.097 3.462 3.462 0 0 0 1.083-.355c.301-.173.533-.404.694-.695.162-.291.243-.663.243-1.115 0-.431-.086-.787-.259-1.067-.161-.28-.387-.5-.678-.662a2.748 2.748 0 0 0-.986-.356 7.08 7.08 0 0 0-1.196-.097ZM190.143 104.071c.173.216.388.501.647.857.269.344.544.732.824 1.163.28.42.555.862.824 1.325.28.464.517.911.711 1.342h-1.713a20.92 20.92 0 0 0-.711-1.245 21.21 21.21 0 0 0-.759-1.195 19.305 19.305 0 0 0-.776-1.083 21.537 21.537 0 0 0-.679-.873c-.14.011-.285.016-.436.016H186.233v4.38h-1.568V97.72a8.331 8.331 0 0 1 1.471-.21c.549-.043 1.05-.064 1.503-.064 1.572 0 2.768.296 3.587.888.83.593 1.244 1.476 1.244 2.651 0 .743-.199 1.379-.598 1.907-.387.527-.964.921-1.729 1.179Zm-2.375-5.252c-.668 0-1.18.016-1.535.049v4.217h1.115c.538 0 1.023-.026 1.454-.08.431-.054.792-.157 1.083-.307.301-.151.533-.361.695-.631.161-.28.242-.646.242-1.099 0-.42-.081-.77-.242-1.05-.162-.28-.383-.5-.663-.663a2.778 2.778 0 0 0-.969-.339 6.806 6.806 0 0 0-1.18-.097ZM194.202 103.15c0-.959.14-1.804.42-2.537.291-.733.679-1.341 1.164-1.826a4.857 4.857 0 0 1 1.713-1.115 5.859 5.859 0 0 1 2.085-.372c.721 0 1.4.124 2.036.372.646.248 1.212.62 1.696 1.115.485.485.868 1.093 1.148 1.826.291.733.436 1.578.436 2.537 0 .959-.145 1.805-.436 2.537-.28.733-.663 1.347-1.148 1.842a4.784 4.784 0 0 1-1.696 1.099 5.556 5.556 0 0 1-2.036.372 5.854 5.854 0 0 1-2.085-.372 4.952 4.952 0 0 1-1.713-1.099c-.485-.495-.873-1.109-1.164-1.842-.28-.732-.42-1.578-.42-2.537Zm1.648 0c0 .679.087 1.298.259 1.859.172.549.415 1.018.727 1.405.324.388.711.69 1.164.905.463.205.98.307 1.551.307s1.083-.102 1.535-.307a3.243 3.243 0 0 0 1.148-.905 4.06 4.06 0 0 0 .743-1.405c.173-.561.259-1.18.259-1.859s-.086-1.293-.259-1.842a4.057 4.057 0 0 0-.743-1.422 3.092 3.092 0 0 0-1.148-.89 3.526 3.526 0 0 0-1.535-.322c-.571 0-1.088.107-1.551.323-.453.205-.84.5-1.164.889a4.224 4.224 0 0 0-.727 1.422 6.146 6.146 0 0 0-.259 1.842ZM214.068 103.247h1.568v5.236a5.607 5.607 0 0 1-.566.145 14.9 14.9 0 0 1-.84.162c-.313.054-.657.097-1.035.129-.377.043-.76.065-1.147.065-.786 0-1.503-.129-2.149-.388a4.578 4.578 0 0 1-1.665-1.131c-.463-.496-.824-1.104-1.082-1.826-.248-.722-.372-1.552-.372-2.489 0-.937.14-1.767.42-2.489.291-.732.679-1.346 1.163-1.842a4.893 4.893 0 0 1 1.697-1.131 5.694 5.694 0 0 1 2.102-.388 8.259 8.259 0 0 1 2.358.323c.28.086.507.173.679.259.184.086.308.15.371.194l-.5 1.309c-.313-.205-.727-.372-1.244-.501a6.04 6.04 0 0 0-1.584-.21c-.572 0-1.094.102-1.568.307a3.344 3.344 0 0 0-1.195.889c-.324.387-.577.861-.76 1.422-.183.549-.275 1.169-.275 1.858 0 .668.076 1.277.227 1.826.161.55.398 1.024.711 1.422.323.388.716.69 1.179.905.474.216 1.029.323 1.665.323.452 0 .835-.021 1.148-.064.323-.054.555-.103.694-.146v-4.169ZM223.569 104.071c.172.216.387.501.646.857.27.344.543.732.823 1.163.28.42.555.862.825 1.325.28.464.517.911.712 1.342h-1.714a20.92 20.92 0 0 0-.711-1.245c-.248-.42-.501-.818-.76-1.195a18.333 18.333 0 0 0-.775-1.083 22.477 22.477 0 0 0-.679-.873c-.14.011-.286.016-.437.016h-1.841v4.38h-1.567V97.72a8.308 8.308 0 0 1 1.469-.21 19.38 19.38 0 0 1 1.504-.064c1.573 0 2.768.296 3.587.888.829.593 1.245 1.476 1.245 2.651 0 .743-.2 1.379-.598 1.907-.389.527-.965.921-1.729 1.179Zm-2.376-5.252c-.668 0-1.18.016-1.535.049v4.217h1.114c.54 0 1.024-.026 1.454-.08.432-.054.793-.157 1.083-.307.303-.151.534-.361.696-.631.162-.28.242-.646.242-1.099 0-.42-.08-.77-.242-1.05-.162-.28-.383-.5-.663-.663a2.791 2.791 0 0 0-.97-.339 6.786 6.786 0 0 0-1.179-.097ZM236.194 108.758a58.089 58.089 0 0 1-.518-1.422c-.161-.474-.329-.954-.501-1.439h-5.074l-1.018 2.861h-1.633c.431-1.186.835-2.279 1.212-3.281.378-1.013.744-1.971 1.1-2.876.366-.905.727-1.767 1.081-2.586.356-.83.729-1.648 1.116-2.456h1.438c.389.808.76 1.626 1.116 2.456.355.819.71 1.681 1.065 2.586.367.905.739 1.863 1.116 2.876.376 1.002.78 2.095 1.212 3.281h-1.712Zm-1.472-4.154c-.345-.937-.689-1.842-1.034-2.714a42.801 42.801 0 0 0-1.05-2.538 42.735 42.735 0 0 0-1.083 2.538c-.334.872-.667 1.777-1.002 2.714h4.169ZM244.452 107.206a33.076 33.076 0 0 0-.436-.986c-.172-.398-.361-.829-.566-1.292a39.865 39.865 0 0 0-.662-1.422 93.678 93.678 0 0 0-.646-1.39 24.773 24.773 0 0 0-.583-1.18 14.317 14.317 0 0 0-.419-.792 98.544 98.544 0 0 0-.292 4.137 286.037 286.037 0 0 0-.193 4.477h-1.536a272.6 272.6 0 0 1 .323-5.834c.076-.959.151-1.891.227-2.796.086-.905.177-1.761.275-2.57h1.373c.291.475.603 1.035.937 1.681.335.647.668 1.325 1.002 2.036.335.701.658 1.406.969 2.117l.858 1.923.856-1.923c.313-.711.636-1.416.969-2.117.334-.711.669-1.39 1.002-2.036.334-.646.647-1.206.937-1.68h1.374c.367 3.609.641 7.342.825 11.199h-1.535a298.614 298.614 0 0 0-.195-4.477 98.71 98.71 0 0 0-.29-4.137c-.108.183-.254.447-.437.792-.172.345-.361.738-.565 1.18l-.663 1.39a75.1 75.1 0 0 0-.647 1.422c-.204.463-.398.894-.581 1.292-.172.399-.313.728-.421.986h-1.26ZM138.967 97.559h1.568v11.199h-1.568v-11.2Z"/></g><defs><clipPath id="a"><path fill="#fff" transform="translate(81 31)" d="M0 0h172v78H0z"/></clipPath></defs></svg>