<svg width="65" height="66" viewBox="0 0 65 66" fill="none" xmlns="http://www.w3.org/2000/svg">
<rect y="0.558105" width="65" height="65" rx="10" fill="white"/>
<path d="M19.5 33.0581C19.5 32.5058 19.9477 32.0581 20.5 32.0581H42.0858L33.7929 23.7652C33.4024 23.3747 33.4024 22.7415 33.7929 22.351C34.1834 21.9605 34.8166 21.9605 35.2071 22.351L45.2071 32.351C45.5976 32.7415 45.5976 33.3747 45.2071 33.7652L35.2071 43.7652C34.8166 44.1557 34.1834 44.1557 33.7929 43.7652C33.4024 43.3747 33.4024 42.7415 33.7929 42.351L42.0858 34.0581H20.5C19.9477 34.0581 19.5 33.6104 19.5 33.0581Z" fill="black"/>
</svg>
