<svg fill="none">
    <symbol id="arr-d" viewBox="0 0 14 15" fill="none"
        xmlns="http://www.w3.org/2000/svg">
        <path d="M6.99951 1.41748V14" stroke="white" stroke-width="1.34813" stroke-linecap="round"
            stroke-linejoin="round" />
        <path d="M13.291 7.7085L6.99976 13.9998L0.708496 7.7085" stroke="white"
            stroke-width="1.34813"
            stroke-linecap="round" stroke-linejoin="round" />
    </symbol>

    <symbol id="pointer" viewBox="0 0 38 39" fill="none"
        xmlns="http://www.w3.org/2000/svg">
        <rect x="0.0888672" y="0.692139" width="37.8042" height="37.8042" rx="8.79167"
            fill="#42484F" />
        <path
            d="M11.4661 14.6177C11.4661 13.0229 12.1232 11.4934 13.2927 10.3657C14.4623 9.23802 16.0486 8.60449 17.7026 8.60449C19.3565 8.60449 20.9428 9.23802 22.1124 10.3657C23.2819 11.4934 23.939 13.0229 23.939 14.6177C23.939 14.7826 23.871 14.9409 23.75 15.0575C23.629 15.1742 23.4649 15.2397 23.2938 15.2397C23.1227 15.2397 22.9586 15.1742 22.8376 15.0575C22.7166 14.9409 22.6487 14.7826 22.6487 14.6177C22.6487 13.3528 22.1276 12.1398 21.2 11.2454C20.2724 10.351 19.0143 9.8486 17.7026 9.8486C16.3908 9.8486 15.1327 10.351 14.2051 11.2454C13.2775 12.1398 12.7564 13.3528 12.7564 14.6177C12.7564 14.7826 12.6885 14.9409 12.5675 15.0575C12.4465 15.1742 12.2824 15.2397 12.1113 15.2397C11.9402 15.2397 11.7761 15.1742 11.6551 15.0575C11.5341 14.9409 11.4661 14.7826 11.4661 14.6177ZM26.3045 19.3867C25.7449 19.3862 25.1982 19.5484 24.7357 19.8522C24.6401 19.4275 24.4393 19.0313 24.1505 18.6975C23.8617 18.3638 23.4935 18.1023 23.0773 17.9354C22.661 17.7684 22.2091 17.7011 21.76 17.739C21.3109 17.7769 20.878 17.9189 20.4982 18.153V14.6177C20.4982 13.9028 20.2036 13.2171 19.6794 12.7116C19.1551 12.2061 18.444 11.9221 17.7026 11.9221C16.9611 11.9221 16.25 12.2061 15.7257 12.7116C15.2015 13.2171 14.9069 13.9028 14.9069 14.6177V23.6374L14.0973 22.3829C13.7247 21.7643 13.1125 21.3136 12.3953 21.1302C11.6782 20.9468 10.9148 21.0455 10.2732 21.4048C9.63152 21.764 9.16417 22.3543 8.97391 23.0458C8.78366 23.7373 8.88609 24.4733 9.25867 25.092L12.4113 30.2757C12.4996 30.4137 12.6403 30.5129 12.8034 30.5523C12.9665 30.5916 13.1391 30.5681 13.2845 30.4866C13.4298 30.4051 13.5364 30.2721 13.5816 30.116C13.6267 29.9598 13.6069 29.7928 13.5263 29.6506L10.3769 24.4668C10.2781 24.3017 10.2139 24.1195 10.1881 23.9305C10.1623 23.7415 10.1754 23.5495 10.2266 23.3654C10.3299 22.9935 10.5822 22.6765 10.928 22.484C11.2738 22.2915 11.6847 22.2394 12.0703 22.339C12.2613 22.3884 12.4403 22.4735 12.5971 22.5895C12.7539 22.7056 12.8855 22.8503 12.9844 23.0154C12.9874 23.0216 12.991 23.0275 12.9951 23.033L15.0037 26.1432C15.0776 26.2583 15.1885 26.347 15.3194 26.3958C15.4504 26.4446 15.5942 26.4509 15.7292 26.4137C15.8642 26.3765 15.9829 26.2979 16.0674 26.1898C16.1519 26.0817 16.1974 25.9499 16.1972 25.8146V14.6177C16.1972 14.2327 16.3558 13.8635 16.6381 13.5913C16.9204 13.3191 17.3033 13.1662 17.7026 13.1662C18.1018 13.1662 18.4847 13.3191 18.767 13.5913C19.0493 13.8635 19.2079 14.2327 19.2079 14.6177V21.6676C19.2079 21.8326 19.2759 21.9908 19.3969 22.1074C19.5178 22.2241 19.6819 22.2896 19.853 22.2896C20.0241 22.2896 20.1882 22.2241 20.3092 22.1074C20.4302 21.9908 20.4982 21.8326 20.4982 21.6676V20.4235C20.4982 20.0385 20.6568 19.6693 20.9391 19.3971C21.2214 19.1249 21.6043 18.972 22.0035 18.972C22.4028 18.972 22.7857 19.1249 23.068 19.3971C23.3503 19.6693 23.5089 20.0385 23.5089 20.4235V22.497C23.5089 22.662 23.5768 22.8202 23.6978 22.9368C23.8188 23.0535 23.9829 23.119 24.154 23.119C24.3251 23.119 24.4892 23.0535 24.6102 22.9368C24.7312 22.8202 24.7992 22.662 24.7992 22.497V22.0823C24.7992 21.6973 24.9578 21.3282 25.2401 21.056C25.5224 20.7837 25.9053 20.6308 26.3045 20.6308C26.7037 20.6308 27.0866 20.7837 27.3689 21.056C27.6512 21.3282 27.8098 21.6973 27.8098 22.0823V25.8146C27.8098 28.1089 27.0249 29.6692 27.0174 29.6838C26.9426 29.8309 26.931 30.0005 26.9852 30.1558C27.0393 30.3111 27.1549 30.4395 27.3066 30.5132C27.3954 30.5586 27.4943 30.5828 27.5948 30.5837C27.7149 30.5839 27.8327 30.5518 27.9349 30.491C28.0371 30.4302 28.1196 30.3431 28.1733 30.2395C28.2109 30.1669 29.1012 28.42 29.1012 25.8146V22.0823C29.1012 21.7282 29.0289 21.3776 28.8883 21.0505C28.7477 20.7234 28.5417 20.4262 28.282 20.1759C28.0223 19.9256 27.714 19.727 27.3747 19.5916C27.0354 19.4562 26.6717 19.3866 26.3045 19.3867Z"
            fill="#E0E0E0" />
    </symbol>

</svg>
    