<svg width="242" height="53" viewBox="0 0 242 53" fill="none" xmlns="http://www.w3.org/2000/svg">
<g clip-path="url(#clip0_4153_532)">
<mask id="mask0_4153_532" style="mask-type:luminance" maskUnits="userSpaceOnUse" x="0" y="0" width="61" height="53">
<path d="M60.5841 0.117676H0.642578V52.5613H60.5841V0.117676Z" fill="white"/>
</mask>
<g mask="url(#mask0_4153_532)">
<path fill-rule="evenodd" clip-rule="evenodd" d="M60.5841 22.2086L59.8066 24.6476C59.3922 25.9125 58.0394 27.9966 55.5168 28.2114C55.7919 29.3522 56.4071 30.6315 57.7643 31.1834L59.716 31.9684L58.662 33.7663C58.4248 34.149 57.198 35.912 54.6393 35.912C54.2011 35.9106 53.7779 35.8677 53.3725 35.7835C53.2679 36.2301 53.1397 36.678 52.9878 37.1231C52.3902 38.8687 52.9054 40.0844 52.9277 40.1345L53.8691 42.0761L51.7075 42.6359C51.6905 42.6418 51.033 42.8153 50.2333 42.8153C49.8648 42.8153 49.5113 42.7775 49.1821 42.7013C48.9316 42.6425 48.6892 42.567 48.4571 42.4747C48.177 42.9663 47.8397 43.4122 47.4468 43.8086C46.0704 45.1962 44.1156 45.8991 41.6377 45.8991L39.8631 45.8766L43.5019 47.3623L40.7815 48.6569C39.8164 49.1187 38.5777 49.7098 37.328 50.1579L37.6771 51.0866L36.7195 51.5143C36.6341 51.5519 34.8114 52.35 31.7783 52.5257C31.7783 52.5257 31.0495 52.5613 30.6441 52.5613C30.2379 52.5613 29.5011 52.5278 29.5011 52.5278C26.4479 52.3565 24.6103 51.5519 24.525 51.5143L23.5704 51.0873L23.9164 50.16C22.7001 49.725 21.5066 49.1565 20.4993 48.6759L17.7278 47.3637L21.3784 45.8766L19.6112 45.8991H19.6032C17.1289 45.8991 15.1741 45.197 13.7954 43.8108C13.401 43.4107 13.063 42.9641 12.7843 42.4747C12.5531 42.567 12.3122 42.6425 12.0623 42.6998C11.7325 42.7775 11.3782 42.8153 11.0098 42.8153C10.1959 42.8153 9.54579 42.6396 9.5191 42.6316L7.36724 42.0761L8.33161 40.0981L8.33232 40.0964C8.35421 40.0423 8.84168 38.8388 8.25452 37.1247C8.10183 36.6795 7.97284 36.2308 7.8698 35.7835C7.46507 35.8677 7.04553 35.9106 6.61116 35.912C4.6031 35.912 3.19175 34.7661 2.59134 33.7867L1.52615 31.9699L3.47936 31.1821C4.83288 30.6315 5.44888 29.3515 5.72683 28.21C3.17099 27.9856 1.83674 25.9038 1.43646 24.647L0.642578 22.2086L3.26291 22.2892C3.45415 22.2884 5.03451 22.2435 6.56445 21.155C6.52896 21.1579 6.49374 21.1615 6.45856 21.165C6.37841 21.173 6.29849 21.181 6.21607 21.181C4.6409 21.181 3.1117 20.2502 2.49868 18.9178L1.39792 16.5122C3.02571 16.5419 4.07828 16.3561 4.07828 16.3561L4.08134 16.3555C4.14272 16.3451 5.10615 16.1833 6.21755 15.0722C7.0485 14.243 8.07514 13.8037 9.18776 13.8037C9.67401 13.8037 10.1091 13.8894 10.482 14.0063C10.4242 13.8109 10.3701 13.6149 10.3367 13.4123C10.015 11.3813 11.1995 9.76715 11.4404 9.4629L13.4062 7.1001L14.6085 9.87462C14.6085 9.87462 14.9095 10.5114 15.4476 10.8237C15.6122 10.0126 16.0154 9.09984 16.8754 8.22921C18.4913 6.58817 20.4615 6.34201 21.4926 6.34201C21.9729 6.34201 22.3116 6.39358 22.4236 6.41101L22.4999 6.42262L24.7296 6.85321C24.5962 6.34348 24.31 5.45397 23.7846 4.65377L22.4933 2.68453L25.7363 3.04687L26.7673 0.897534L28.7731 1.9083L30.6182 0.117676L32.469 1.9083L34.4698 0.897534L35.5038 3.04687L38.7476 2.68598L37.4585 4.65305C36.9337 5.45397 36.646 6.34565 36.5111 6.85684L38.8476 6.40664C38.9299 6.39358 39.2716 6.34201 39.7497 6.34201C40.7807 6.34201 42.7518 6.58817 44.3713 8.22994C45.2298 9.10129 45.6323 10.0126 45.7953 10.8237C46.3365 10.5085 46.6404 9.86155 46.6441 9.85284L47.8442 7.09428L49.7803 9.44257C49.7811 9.44112 51.2591 11.1577 50.9062 13.4094C50.8729 13.6134 50.8188 13.8109 50.7595 14.0063C51.1346 13.8901 51.5697 13.8037 52.0568 13.8037C53.1685 13.8037 54.1953 14.243 55.0247 15.0722C56.1811 16.2304 57.1818 16.3575 57.1922 16.3582C57.1922 16.3582 58.4612 16.5302 59.8503 16.5122L58.7436 18.9178C58.132 20.2502 56.6035 21.181 55.0255 21.181C54.9431 21.181 54.863 21.173 54.783 21.1649C54.7485 21.1613 54.7139 21.1578 54.6792 21.155C56.2129 22.2435 57.7933 22.2884 58.0104 22.2884L60.5841 22.2086ZM4.07828 16.3561C4.07824 16.3561 4.07824 16.3561 4.07828 16.3561V16.3561Z" fill="white"/>
<path fill-rule="evenodd" clip-rule="evenodd" d="M35.5631 31.8157H21.7297V23.9947C21.7297 23.2373 21.5029 22.4756 21.2354 21.772H27.4701C28.063 22.3485 28.6427 22.7087 29.195 22.9055C29.1238 23.1842 29.0296 23.7587 29.295 24.3315C29.513 24.7941 29.9057 25.15 30.475 25.3873C30.5365 25.9588 30.9064 26.8178 31.9258 27.1968C31.4779 27.6376 31.0443 28.0544 30.8687 28.2215L26.7303 28.1568C26.6369 28.111 26.4776 28.008 26.4056 27.8621C26.4014 27.8514 26.3957 27.8432 26.3902 27.8351C26.3848 27.8274 26.3794 27.8195 26.3752 27.8098L27.0505 27.9165C27.0645 27.9179 27.0793 27.9179 27.0934 27.9179C27.2238 27.9179 27.338 27.83 27.3596 27.6993C27.3819 27.5519 27.2817 27.4177 27.1356 27.3952L26.3048 27.2673L27.2262 24.1486L26.3529 22.3485L24.9549 23.7978L24.8689 27.0393L23.9291 26.894C23.7838 26.8666 23.6452 26.9696 23.6199 27.1141C23.5969 27.2563 23.6963 27.3915 23.8438 27.4169L24.2381 27.4765C24.0972 27.5542 24.0039 27.6173 23.9928 27.6253L23.9135 27.6811L23.8912 27.7771C23.6622 28.6868 24.1796 29.5503 24.7385 29.9365L24.7184 30.0513C24.6956 30.1915 24.7288 30.3272 24.8134 30.442C24.8956 30.5581 25.0194 30.6285 25.161 30.6525C25.1891 30.6582 25.2196 30.6606 25.2478 30.6606C25.4895 30.6606 25.7007 30.4971 25.7592 30.256C25.9682 30.2808 26.1588 30.2857 26.2892 30.2857H26.3988L31.8278 31.2472L31.9206 31.1862C32.352 30.8915 34.0019 29.7144 34.543 29.3237C34.6906 29.4486 34.8566 29.5619 35.0582 29.6563C34.8826 30.2313 34.8722 31.1165 35.5631 31.8157ZM21.7283 32.3432H39.5139L39.5177 38.8965C39.5177 41.0691 38.2152 42.5859 36.1643 43.0798L36.5067 41.3268C36.526 41.223 36.5482 41.1025 36.5622 41.0009C36.66 41.0415 36.7624 41.0742 36.8736 41.0945C37.0011 41.1184 37.1197 41.1302 37.2279 41.1302C37.7519 41.1302 38.0581 40.8593 38.2613 40.629L38.5252 40.3278L38.3094 39.9981C38.2901 39.9661 37.812 39.2269 37.4473 38.7216C37.3746 38.6227 37.305 38.5232 37.2353 38.4173L37.2339 38.4153C36.8168 37.8035 36.2957 37.0391 35.2503 37.0391L35.1561 37.0412C34.9842 37.0522 34.8359 37.0849 34.7151 37.1299C34.3875 36.9796 34.0472 36.9004 33.6944 36.9004C33.2615 36.9004 32.8974 37.0181 32.6536 37.0994C32.6317 37.1056 32.6107 37.1119 32.5906 37.1181C32.5468 37.1313 32.5074 37.1434 32.4728 37.1488L30.5173 36.9607C30.4921 36.9564 30.4121 36.9098 30.3149 36.7974V36.7872L30.7383 36.6215C30.6189 35.2398 29.2653 34.3902 28.5107 34.1019C28.4774 33.964 28.4092 33.826 28.2906 33.7142L27.8702 33.3228L27.5011 33.757L27.318 33.9778L24.5784 32.8755L26.3611 35.0677L25.6584 36.1119C25.4005 36.3798 25.6843 36.6478 25.6843 36.6478L26.4115 37.1393L27.1647 36.8634C27.1816 36.8634 27.1972 36.8659 27.2131 36.8683C27.2218 36.8697 27.2304 36.8711 27.2394 36.872C27.2183 36.9347 27.1943 37.1002 27.1719 37.2552C27.1543 37.3772 27.1375 37.4927 27.1238 37.5467L25.8163 37.2947L24.4427 38.055C23.7371 38.5632 23.6407 39.4034 23.9024 39.9784L24.0543 40.3052L24.2708 40.7663L24.7519 40.571C24.7593 40.5702 24.7651 40.5673 24.7689 40.5644C24.5962 41.1047 24.6673 41.6188 24.9743 41.9557L25.2663 42.3145L25.6554 42.7959L26.0816 42.3478C26.2062 42.2244 26.6132 41.7786 26.7391 41.3965L26.831 41.1047L26.6235 40.8803L26.5886 40.8397L26.8228 40.4613L28.5301 40.855L28.914 40.942L29.1178 40.6116L29.229 40.4316C29.2498 40.3938 29.2549 40.3873 29.3342 40.3873C29.3943 40.3873 29.4551 40.3938 29.5196 40.4083C30.1652 40.5267 30.7582 40.5869 31.2853 40.5869C31.7975 40.5869 32.1029 40.5673 32.466 40.449C32.466 40.449 33.383 41.4684 33.4142 41.507L32.8538 43.2046L32.8285 43.3063C31.7657 43.3912 31.2483 43.6192 30.6225 44.2307C29.7146 43.3484 29.0703 43.2547 26.6302 43.2547C23.7081 43.2547 21.7283 41.5775 21.7283 38.8965V32.3432Z" fill="#498467"/>
<path fill-rule="evenodd" clip-rule="evenodd" d="M26.3448 4.87725L26.8103 4.92517L27.012 4.50911L27.5983 3.27977L28.6879 3.83163L29.1097 4.04293L30.6211 2.57471L31.799 3.7169L32.1362 4.04293L32.5588 3.83163L33.6417 3.27977L34.237 4.50911L34.4342 4.92517L34.8997 4.87725L35.3452 4.82498C35.1414 5.27445 34.9909 5.70213 34.8833 6.05575C33.7076 5.41386 32.1799 5.04862 30.6211 5.04862C29.0697 5.04862 27.5435 5.41386 26.3634 6.05575C26.2544 5.70213 26.1055 5.27445 25.9015 4.82498L26.3448 4.87725ZM30.6211 5.68979C32.7069 5.68979 34.3755 6.36727 35.2977 7.08831C35.2977 7.08831 35.5712 5.4734 36.506 4.04875L34.8262 4.23608L33.9471 2.40697L32.2593 3.25944L30.6211 1.67432L28.9882 3.25944L27.2966 2.40697L26.4189 4.23608L24.7393 4.04875C25.6747 5.4734 25.9476 7.08831 25.9476 7.08831C26.8756 6.36727 28.539 5.68979 30.6211 5.68979ZM35.6704 48.9303L34.8579 46.7411C35.8245 46.4528 37.4865 45.8328 38.2313 45.4203L37.7348 47.0134L39.4174 47.5616C38.3996 48.0619 37.1655 48.5288 35.6704 48.9303ZM30.6262 50.8982C28.6677 50.8982 26.4336 50.4566 25.7745 50.2272L26.7753 47.576C27.6048 47.8136 29.3311 48.0655 30.5839 48.0576H30.6631C31.9159 48.0655 33.64 47.8136 34.4739 47.576L35.4725 50.2272C34.8142 50.4566 32.5793 50.8982 30.6262 50.8982ZM21.8296 47.5616L23.5152 47.0134L23.0164 45.4203C23.7599 45.8328 25.4247 46.4528 26.3891 46.7411L25.5759 48.9303C24.0861 48.5288 22.8467 48.0619 21.8296 47.5616ZM39.493 47.0751L38.4686 46.6902L38.7517 45.6526L39.0631 44.5228C39.0631 44.5228 37.2477 45.4879 34.689 46.2117C33.9632 46.415 33.4139 46.5087 33.4139 46.5087V47.2784C33.4139 47.2784 32.0455 47.5108 30.6631 47.5108H30.5839C29.1999 47.5108 27.8339 47.2784 27.8339 47.2784V46.5087C27.8339 46.5087 27.283 46.415 26.558 46.2117C24 45.4879 22.1863 44.5228 22.1863 44.5228L22.4931 45.6526L22.7822 46.6902L21.754 47.0751L20.6141 47.4918C20.7372 47.5503 20.865 47.6112 20.9969 47.674C22.2607 48.2763 23.8873 49.0514 25.3876 49.4538L24.997 50.5002C24.997 50.5002 27.0985 51.4376 30.5994 51.4464V51.4486H30.6468V51.4464C34.1515 51.4376 36.2515 50.5002 36.2515 50.5002L35.8586 49.4538C37.3773 49.0466 39.0273 48.258 40.293 47.6527L40.6301 47.4918L39.493 47.0751ZM54.6629 34.0917C56.3293 34.0917 57.0549 32.8537 57.0549 32.8537C53.0618 31.2301 53.4554 25.9904 53.4554 25.9904C53.4554 25.9904 53.9742 26.3694 54.9845 26.405C55.021 26.4072 55.052 26.4072 55.0891 26.4072C57.2891 26.4072 58.0348 24.0989 58.0348 24.0989H57.9911C57.5879 24.0989 54.3174 24.0059 52.0048 21.1267L51.804 20.877C50.3695 19.089 49.1263 17.5399 46.7714 16.9146L46.5298 16.8725L46.4765 16.6306C46.4089 16.2624 46.667 15.9161 47.2517 15.5436C50.6512 13.3631 48.3428 10.5813 48.3428 10.5813C48.3428 10.5813 47.3719 12.8054 45.2 12.8054C45.1738 12.8054 45.147 12.8047 45.1202 12.804C45.0931 12.8032 45.0659 12.8025 45.0391 12.8025L44.9961 12.8004C44.7637 12.7889 44.5389 12.7778 44.3135 12.7313L43.9132 12.6551C43.9132 12.6551 44.5329 11.0046 43.0385 9.48992C41.9125 8.34627 40.5427 8.15166 39.7518 8.15166C39.353 8.15166 39.1002 8.20176 39.1002 8.20176C39.8504 9.16316 40.3937 10.7592 39.5272 11.7438C39.2371 12.0713 38.7849 12.2781 38.3397 12.4818C37.6349 12.8041 36.9476 13.1185 36.9476 13.891C36.9476 14.4261 37.4576 15.0491 38.3724 15.6083C41.1224 17.3059 43.8532 19.5591 44.9902 22.5762C46.4089 26.3396 44.8093 28.839 42.5285 30.2723C42.5285 30.2723 43.2445 30.9172 44.2816 30.9998C44.4929 31.0196 44.6989 31.029 44.8916 31.029C47.082 31.029 48.2154 30.0225 48.2154 30.0225C48.2154 30.0225 48.0278 31.4131 46.8886 32.7041C45.8368 33.8957 44.4558 34.5986 42.3492 34.6276C42.3492 34.6276 42.2832 35.5847 43.2164 36.4139C43.8132 36.9374 45.1904 37.1066 45.1904 37.1066C45.1904 37.1066 42.6101 37.6193 42.3253 41.353C42.1698 43.3759 41.642 44.0788 41.642 44.0788H41.6887C47.6773 44.0788 47.5238 39.0476 47.5238 39.0476C47.5238 39.0476 47.9404 40.5375 49.6112 40.926C49.8136 40.9776 50.0285 40.9979 50.2338 40.9979C50.7713 40.9979 51.239 40.8738 51.239 40.8738C51.239 40.8738 50.3637 39.0672 51.2316 36.5381C51.9513 34.4395 51.8357 32.8849 51.8357 32.8849C51.8357 32.8849 52.6422 34.0801 54.6421 34.0917H54.6629ZM58.7257 24.3108C58.6886 24.4263 57.7857 27.1136 55.0891 27.1136L54.9616 27.1101C54.6725 27.102 54.416 27.0636 54.1922 27.0208C54.3018 28.4867 54.8511 31.1953 57.3306 32.2039L58.0904 32.5102L57.6805 33.2096L57.6775 33.2142C57.6068 33.327 56.6851 34.7962 54.6414 34.7962C53.7251 34.7932 53.0158 34.5703 52.4865 34.3001C52.4058 34.9638 52.2397 35.8156 51.915 36.7676C51.1661 38.9505 51.8513 40.4869 51.8884 40.57L51.889 40.5717L52.2605 41.3399L51.4199 41.5584L51.4161 41.5594C51.3429 41.5771 50.8366 41.7 50.2338 41.7C49.9471 41.7 49.6832 41.6697 49.4415 41.6144C48.8039 41.467 48.3156 41.1896 47.9367 40.8738C47.707 41.5629 47.3163 42.3412 46.6343 43.0304C45.4802 44.1957 43.8146 44.7833 41.6398 44.7833L40.3233 44.7658L41.0513 43.6766C41.0563 43.6701 41.4767 43.0304 41.6079 41.3022C41.7628 39.232 42.562 38.023 43.3491 37.3289C43.1238 37.2227 42.9095 37.0929 42.7317 36.9345C41.5723 35.9137 41.6212 34.7126 41.628 34.5819L41.6783 33.9342L42.3373 33.924C44.1111 33.8957 45.3445 33.378 46.3468 32.2401C46.581 31.973 46.7692 31.7064 46.9205 31.4465C46.3682 31.6113 45.6885 31.7341 44.8916 31.7341C44.6804 31.7341 44.455 31.7217 44.2193 31.7064C42.976 31.602 42.1354 30.8774 42.0405 30.7955L41.3507 30.1751L42.1379 29.6798C43.8917 28.5776 45.6982 26.4871 44.3135 22.8216C43.4188 20.4385 41.347 18.2796 37.989 16.2109C36.8543 15.508 36.2279 14.681 36.2279 13.891C36.2279 12.6703 37.2715 12.1889 38.0351 11.8455L38.1058 11.8124C38.4547 11.6491 38.806 11.4848 38.9831 11.2842C39.5731 10.6132 39.0757 9.32799 38.5265 8.63163L37.8275 7.72833L38.9609 7.50759C38.9658 7.50716 38.9763 7.50563 38.9924 7.5033C39.0858 7.48973 39.3631 7.4495 39.7518 7.4495C40.6028 7.4495 42.2305 7.65137 43.5581 8.99759C44.6626 10.1173 44.8057 11.3096 44.7478 12.08C44.8311 12.0868 44.9161 12.091 45.0036 12.0953L45.0762 12.0989H45.2C46.8399 12.0989 47.6287 10.4138 47.6788 10.3072L47.6802 10.3039L48.1495 9.22487L48.9003 10.1347C48.9486 10.1899 50.0531 11.5419 49.7876 13.2367C49.6068 14.3637 48.8855 15.3345 47.6447 16.1333C47.512 16.2181 47.4149 16.2908 47.3473 16.3511C49.6781 17.0938 50.9841 18.7197 52.3581 20.4304L52.3709 20.4465L52.5703 20.6904C54.6799 23.3169 57.656 23.3944 58.0125 23.3944H58.0163L59.0274 23.3633L58.7257 24.3108ZM52.0565 15.6138C52.5591 15.6138 53.1448 15.7815 53.6985 16.3422C55.4368 18.0703 57.0534 18.1669 57.0534 18.1669C56.7599 18.8044 55.9081 19.3635 55.026 19.3635C54.8222 19.3635 54.6168 19.333 54.4144 19.264C53.8638 19.0822 53.476 18.6119 53.0129 18.0504C52.4701 17.3921 51.8239 16.6085 50.6905 16.0175C50.6905 16.0175 51.276 15.6138 52.0565 15.6138ZM50.348 16.642C51.3538 17.1671 51.9403 17.8706 52.4539 18.4944L52.4742 18.5189C52.9724 19.1192 53.4476 19.6921 54.1884 19.9328C54.4545 20.0222 54.7377 20.0649 55.026 20.0649C56.1505 20.0649 57.2817 19.3904 57.7101 18.4558L58.1415 17.5198L57.0979 17.4589C57.0489 17.4581 55.7065 17.3377 54.2144 15.8439C53.5999 15.2304 52.8564 14.9087 52.0565 14.9087C51.1147 14.9087 50.4074 15.3528 50.2853 15.4295L50.2739 15.4366L49.3155 16.0981L50.348 16.642ZM50.8222 26.0134V25.977C51.7407 30.6758 53.7836 31.8818 53.7836 31.8818C52.158 31.0969 51.1328 29.0144 50.8845 28.2643C50.6148 32.3945 48.5577 35.2598 46.1517 38.0191C44.9033 39.4496 44.4683 40.8401 44.4683 40.8401C44.4683 40.8401 44.7091 39.2643 45.7876 37.9821C48.0322 35.3403 50.1663 32.0518 50.3241 28.2498C50.4324 25.5951 49.7371 23.4436 48.6496 21.6697C49.2574 23.5169 49.1715 25.7788 47.1063 27.8904C47.1063 27.8904 51.2174 23.0653 45.4712 18.1181C43.8386 16.7818 42.096 15.8082 40.7591 15.0612C40.2126 14.7558 39.7338 14.4883 39.3581 14.2494C44.039 15.7452 46.325 14.0984 46.325 14.0984C44.8307 15.3676 42.8953 15.3458 41.6945 15.1629C42.0206 15.3182 42.3586 15.4809 42.7233 15.6726C46.6705 17.7725 50.2174 21.2282 50.8222 26.0134ZM19.5566 44.0788C13.5672 44.0788 13.7199 39.0476 13.7199 39.0476C13.7199 39.0476 13.3018 40.5375 11.6333 40.926C11.4331 40.9776 11.2196 40.9979 11.0113 40.9979C10.4739 40.9979 10.0084 40.8738 10.0084 40.8738C10.0084 40.8738 10.8794 39.0672 10.0114 36.5381C9.29386 34.4403 9.41023 32.8849 9.41023 32.8849C9.41023 32.8849 8.60523 34.0801 6.6031 34.0917H6.58308C4.91824 34.0917 4.19106 32.8537 4.19106 32.8537C8.18124 31.2301 7.79059 25.9904 7.79059 25.9904C7.79059 25.9904 7.27172 26.3694 6.2599 26.405C6.22284 26.4072 6.19023 26.4072 6.15539 26.4072C3.95386 26.4072 3.20816 24.0989 3.20816 24.0989H3.25264C3.65958 24.0989 6.9263 24.0051 9.23752 21.1267L9.43379 20.8825C10.8711 19.0917 12.1155 17.5411 14.4693 16.9146L14.7161 16.8717L14.7688 16.6306C14.837 16.2624 14.5797 15.9161 13.9949 15.5436C10.5962 13.3631 12.9045 10.582 12.9045 10.582C12.9045 10.582 13.8696 12.8054 16.0474 12.8054C16.0732 12.8054 16.0984 12.8049 16.1239 12.8043C16.1503 12.8038 16.1774 12.8032 16.206 12.8032L16.2645 12.8001C16.4891 12.7884 16.7114 12.7768 16.931 12.7313L17.3313 12.6551C17.3313 12.6551 16.7093 11.0046 18.2082 9.48992C19.3341 8.34627 20.7025 8.15166 21.4935 8.15166C21.8944 8.15166 22.1435 8.20176 22.1435 8.20176C21.3949 9.16316 20.8522 10.7592 21.7181 11.7438C22.0082 12.0713 22.4598 12.2781 22.9046 12.4817C23.6088 12.804 24.2954 13.1184 24.2954 13.891C24.2954 14.4261 23.7861 15.0491 22.8729 15.6083C20.1206 17.3059 17.3906 19.5591 16.2542 22.5762C14.837 26.3404 16.4366 28.839 18.7204 30.2723C18.7204 30.2723 18.0022 30.9172 16.9636 30.9998C16.7524 31.0196 16.5478 31.029 16.3513 31.029C14.1631 31.029 13.0305 30.0225 13.0305 30.0225C13.0305 30.0225 13.2188 31.4131 14.3514 32.7049C15.4099 33.8957 16.7887 34.5986 18.8961 34.6276C18.8961 34.6276 18.9628 35.5847 18.031 36.4131C17.4329 36.9374 16.0548 37.1066 16.0548 37.1066C16.0548 37.1066 18.6374 37.6193 18.9213 41.3522C19.0754 43.3759 19.5995 44.0788 19.5995 44.0788H19.5566ZM20.1932 43.6766L20.1908 43.6725C20.1569 43.6153 19.7675 42.959 19.6387 41.3022C19.4824 39.2313 18.6833 38.023 17.8938 37.3289C18.1222 37.2227 18.3334 37.0929 18.5114 36.9345C19.6706 35.9137 19.6217 34.7126 19.6137 34.5819L19.5692 33.9342L18.9049 33.924C17.1363 33.8957 15.9006 33.378 14.8985 32.2401C14.6657 31.973 14.4774 31.7064 14.3248 31.4465C14.8762 31.6113 15.5515 31.7341 16.3513 31.7341C16.5656 31.7341 16.7887 31.7217 17.0243 31.7064C18.2697 31.6019 19.1125 30.8757 19.2059 30.7952L19.8952 30.1751L19.1087 29.6798C17.3483 28.5776 15.5493 26.4871 16.931 22.8216C17.8265 20.4385 19.8952 18.2796 23.2584 16.2109C24.3932 15.508 25.0144 14.681 25.0144 13.891C25.0144 12.6703 23.9736 12.1889 23.2102 11.8455L23.142 11.8136C22.7915 11.65 22.439 11.4853 22.2621 11.2842C21.6706 10.6132 22.1687 9.32799 22.718 8.63163L23.4222 7.72833L22.2822 7.50759L22.2577 7.50411C22.1722 7.4913 21.8935 7.4495 21.4935 7.4495C20.6424 7.4495 19.0176 7.65137 17.6908 8.99759C16.5849 10.118 16.4396 11.3096 16.4965 12.08C16.4122 12.0869 16.3273 12.0911 16.2394 12.0954L16.169 12.0989H16.0474C14.3826 12.0989 13.5961 10.3714 13.5657 10.3039L13.098 9.22487L12.3397 10.1347L12.3341 10.1418C12.24 10.2615 11.1971 11.5866 11.4598 13.2367C11.6384 14.3637 12.3612 15.3345 13.6013 16.1333C13.7362 16.2181 13.8303 16.2908 13.8978 16.3511C11.5661 17.0932 10.2618 18.7171 8.88907 20.4261L8.87282 20.4465L8.67416 20.6904C6.56751 23.3169 3.58472 23.3944 3.22817 23.3944L2.21191 23.3633L2.52102 24.3108C2.55733 24.4263 3.45647 27.1136 6.15539 27.1136L6.28511 27.1101C6.57122 27.102 6.82697 27.0636 7.05452 27.0208C6.94333 28.4861 6.39258 31.1953 3.91234 32.2039L3.15479 32.5102L3.5647 33.2096L3.56557 33.211C3.61584 33.2929 4.53799 34.7962 6.60903 34.7962C7.52003 34.7932 8.22867 34.5703 8.75866 34.3009C8.83873 34.9638 9.00551 35.8156 9.33091 36.7676C10.0743 38.9344 9.4033 40.4641 9.35775 40.568L9.35612 40.5717L8.98327 41.3399L9.82534 41.5584C9.88092 41.5723 10.3991 41.7 11.0113 41.7C11.2975 41.7 11.5621 41.6697 11.8015 41.6144C12.4397 41.467 12.9334 41.1896 13.3085 40.8738C13.5368 41.5629 13.9289 42.3412 14.6094 43.0304C15.7665 44.1957 17.4305 44.7833 19.6047 44.7833L20.922 44.7658L20.1932 43.6766ZM9.18884 15.6153C8.68331 15.6153 8.09845 15.7838 7.54251 16.3437C5.80649 18.0726 4.19057 18.1692 4.19057 18.1692C4.48188 18.8067 5.33505 19.3651 6.21642 19.3651C6.42099 19.3651 6.62632 19.3361 6.82424 19.2671C7.37617 19.0847 7.7657 18.6134 8.2305 18.0512C8.77448 17.393 9.42157 16.6102 10.5527 16.0198C10.5527 16.0198 9.96494 15.6153 9.18884 15.6153ZM7.05478 19.9358C6.78791 20.0251 6.50551 20.0672 6.21642 20.0672C5.09267 20.0672 3.96373 19.3927 3.53307 18.4589L3.10537 17.5221L4.14757 17.462C4.19576 17.4604 5.53446 17.3406 7.02883 15.8463C7.64258 15.2327 8.3868 14.9118 9.18884 14.9118C10.1293 14.9118 10.8327 15.3538 10.9554 15.4309L10.9671 15.4382L11.9285 16.1005L10.893 16.6443C9.89405 17.1652 9.31558 17.8629 8.8019 18.4823L8.79005 18.4967L8.7748 18.515C8.27558 19.1183 7.79957 19.6936 7.05478 19.9358ZM10.9219 28.2498C10.81 25.5951 11.506 23.4436 12.5949 21.6697C11.9878 23.5169 12.0701 25.7788 14.1382 27.891C14.1382 27.891 10.0257 23.0653 15.7756 18.1181C17.4083 16.7808 19.1504 15.8069 20.4869 15.0598C21.0321 14.755 21.5099 14.488 21.885 14.2494C17.2056 15.7452 14.9202 14.0984 14.9202 14.0984C16.4131 15.3676 18.3492 15.3458 19.5493 15.1629L19.4917 15.1904C19.1844 15.3374 18.8623 15.4915 18.5213 15.6726C14.5726 17.7725 11.0279 21.2282 10.4201 26.0134V25.977C9.50314 30.6758 7.46173 31.8818 7.46173 31.8818C9.08582 31.0969 10.1087 29.0144 10.3578 28.2643C10.6291 32.3945 12.6861 35.2598 15.0915 38.0191C16.3397 39.4496 16.7792 40.8401 16.7792 40.8401C16.7792 40.8401 16.5353 39.2643 15.4517 37.9821C13.2109 35.3411 11.079 32.0518 10.9219 28.2498ZM26.6658 9.03046L30.6203 10.5611L34.5765 9.03046C34.2414 8.25061 32.6907 7.58694 30.6203 7.58475C28.553 7.58694 27.0022 8.25061 26.6658 9.03046ZM30.9109 16.7281L33.569 15.3557L34.5178 9.97226L30.9109 11.1718V16.7281ZM36.431 17.5218L35.2153 16.8305L33.9663 16.1298L30.63 17.9095L30.6203 17.9022L30.6143 17.9095L27.2773 16.1298L26.0283 16.8305L24.8104 17.5218H24.7964L24.488 17.6967C25.1751 17.8826 25.6977 18.2152 26.1402 18.6574C26.1474 18.6642 26.1541 18.6714 26.1607 18.6788C26.1705 18.6896 26.1806 18.7006 26.1929 18.7105C26.2907 18.8135 26.3871 18.9253 26.4812 19.0387L26.4852 19.0433C26.5058 19.0675 26.5248 19.0899 26.5457 19.1186C26.6317 19.2304 26.7177 19.3495 26.8022 19.4707C26.8126 19.4843 26.8229 19.4994 26.8335 19.515C26.8415 19.527 26.8499 19.5394 26.8585 19.5512C26.9585 19.7001 27.0535 19.8534 27.1475 20.0117C28.0119 21.4727 29.3936 22.3454 30.6203 22.3476C31.8487 22.3454 33.2295 21.4727 34.0954 20.0117C34.191 19.8489 34.2881 19.6922 34.3881 19.5448C34.403 19.5236 34.4192 19.5019 34.4334 19.4801C34.5178 19.3546 34.6076 19.2326 34.7009 19.1141C34.7129 19.0985 34.7248 19.0839 34.7358 19.0698L34.7573 19.043C34.8536 18.9253 34.9538 18.8121 35.0546 18.7067C35.0617 18.7001 35.0683 18.6933 35.0748 18.687C35.0841 18.6776 35.0931 18.6685 35.1027 18.6603C35.543 18.2189 36.0671 17.8826 36.7535 17.6967L36.4481 17.5218H36.431ZM39.5131 23.9958C39.5131 23.2385 39.7386 22.4768 40.0105 21.7732H33.7736C32.8181 22.7013 31.902 23.0454 31.0828 23.1253C30.9346 23.1398 30.7842 23.1492 30.6322 23.1492H30.6115C30.4588 23.1492 30.3075 23.1398 30.1593 23.1253C30.0162 23.1129 29.8665 23.0904 29.716 23.0563C29.6627 23.2661 29.5944 23.7011 29.7887 24.1165C29.9629 24.4911 30.315 24.7706 30.8279 24.9566L31.0007 25.0219L31.0037 25.2042C31.0037 25.2587 31.0443 26.4414 32.3586 26.7696L32.4098 26.7178C32.6036 26.5216 32.7795 26.3433 32.9131 26.1932C32.6448 25.573 32.7849 24.9414 33.1754 24.6306C33.1584 24.6958 32.9872 26.2477 34.2555 26.8241L34.4653 26.9208L34.403 27.14C34.3829 27.2046 33.9589 28.7062 35.4963 29.2647L35.7676 29.3656L35.6475 29.6234C35.6201 29.6821 35.0189 31.0429 36.4377 31.817H39.5154V29.4238C38.4213 29.2922 37.9573 28.4304 37.8379 27.8204C37.3294 27.7354 36.9358 27.5191 36.6645 27.1684C36.0881 26.4238 36.4706 25.7356 36.5635 25.5684C36.5746 25.5485 36.5815 25.536 36.5823 25.5317C36.5815 25.5389 36.5823 26.3507 37.0937 26.8517C37.3472 27.0928 37.6482 27.2802 38.101 27.3231L38.3257 27.3427L38.3449 27.5663C38.3493 27.6141 38.4725 28.7142 39.5154 28.8856L39.5131 23.9958ZM36.5088 41.3279L36.1649 43.0821C38.2167 42.5876 39.5191 41.0707 39.5191 38.8982L39.5154 32.3449H21.729V38.8982C21.729 41.579 23.7096 43.2572 26.6317 43.2572C29.0726 43.2572 29.716 43.35 30.6241 44.2323C31.2497 43.6209 31.7671 43.3921 32.83 43.3079L32.8544 43.2055L33.4163 41.5092C33.3844 41.4701 32.4683 40.4507 32.4683 40.4507C32.1044 40.569 31.7982 40.5879 31.2868 40.5879C30.7596 40.5879 30.1659 40.529 29.5218 40.4099C29.4565 40.3954 29.3966 40.3896 29.3357 40.3896C29.2565 40.3896 29.2519 40.3954 29.2305 40.434L29.1193 40.6132L28.9155 40.9436L28.5308 40.8572L26.8243 40.463L26.5902 40.8412L26.6249 40.8819L26.8325 41.1064L26.7399 41.3982C26.6153 41.7801 26.2077 42.2268 26.0831 42.3487L25.6569 42.7975L25.2685 42.3167L24.9764 41.9573C24.6688 41.6205 24.5984 41.1064 24.7712 40.5654C24.7667 40.569 24.76 40.5711 24.7533 40.5733L24.2722 40.7679L24.0558 40.3069L23.9039 39.9808C23.6414 39.405 23.7378 38.5648 24.4442 38.0566L25.8178 37.2971L27.1253 37.5484C27.1392 37.4938 27.1562 37.3768 27.1742 37.2537C27.1966 37.0997 27.2204 36.9359 27.2409 36.8737C27.2319 36.8728 27.2232 36.8714 27.2146 36.87C27.1986 36.8675 27.183 36.8651 27.1661 36.8651L26.4129 37.1402L25.6859 36.65C25.6859 36.65 25.402 36.3807 25.6591 36.1134L26.3626 35.0693L24.5798 32.8772L27.3202 33.9794L27.502 33.7587L27.8717 33.3245L28.2921 33.715C28.4107 33.8276 28.4789 33.9655 28.5115 34.1036C29.2661 34.3919 30.6203 35.2415 30.7398 36.6232L30.3164 36.7895V36.7989C30.4143 36.9115 30.4935 36.9573 30.5181 36.9624L32.4749 37.1512C32.5069 37.145 32.5445 37.1336 32.586 37.1209C32.608 37.1142 32.6315 37.1071 32.6558 37.1003C32.8989 37.0196 33.2622 36.9028 33.6958 36.9028C34.0487 36.9028 34.3881 36.9812 34.7172 37.1314C34.8374 37.0872 34.9857 37.0538 35.1576 37.0429L35.251 37.0407C36.2973 37.0407 36.8191 37.8053 37.2363 38.4163L37.2376 38.4182C37.3071 38.5249 37.3754 38.6238 37.448 38.7231C37.8143 39.2286 38.2916 39.9671 38.3108 39.9996L38.5258 40.33L38.2627 40.6307C38.0596 40.8616 37.7534 41.1317 37.2286 41.1317C37.1212 41.1317 37.0033 41.1193 36.8743 41.0954C36.7631 41.075 36.6615 41.0431 36.5637 41.0032C36.5527 41.078 36.5377 41.1636 36.5233 41.2449L36.5088 41.3279ZM25.3026 39.6032L25.21 39.3766C25.1439 39.2286 25.1529 39.0688 25.2803 38.9816L26.0283 38.4755L27.278 38.7108C27.278 38.7108 27.0519 38.4334 27.0742 38.0625L25.8807 37.8147L24.7555 38.4857C24.2722 38.8394 24.2381 39.4174 24.3975 39.7601L24.5473 40.0817C24.5473 40.0817 25.2411 39.8014 25.3026 39.6032ZM35.5934 43.1888L35.9766 41.229C36.0197 41.0149 36.0597 40.728 36.0597 40.728C36.037 40.7053 36.0094 40.6788 35.978 40.6489C35.8054 40.4835 35.5217 40.2117 35.351 39.8915C35.2079 39.6227 35.1814 39.4214 35.1513 39.1939C35.1245 38.9901 35.0947 38.7654 34.9759 38.4524C34.9759 38.4524 35.053 38.2985 35.2302 38.2985C35.2584 38.2985 35.2881 38.3012 35.3177 38.3093C35.5513 38.3743 35.7108 38.7621 35.8908 39.2C36.1345 39.7928 36.4161 40.4775 36.9707 40.5778C37.0655 40.5966 37.1522 40.6024 37.2286 40.6024C37.5081 40.6024 37.6742 40.4861 37.8528 40.2785C37.8528 40.2785 37.368 39.5321 37.0055 39.0282C36.929 38.9235 36.8554 38.8153 36.7819 38.7075C36.3914 38.1351 36.007 37.5715 35.251 37.5715C35.2302 37.5715 35.2043 37.5715 35.182 37.5744C34.8871 37.5889 34.7039 37.7305 34.7039 37.7305C34.3414 37.5069 34.002 37.4307 33.6958 37.4307C33.3505 37.4307 33.0522 37.5263 32.8226 37.5999C32.679 37.646 32.5623 37.6833 32.4779 37.6833H32.4699L30.4662 37.4888C30.1526 37.4604 29.9044 37.1512 29.8154 37.0298C29.7931 36.9972 29.7813 36.9769 29.7813 36.9769C29.7813 36.924 29.7813 36.8694 29.7775 36.82C29.71 35.2152 28.441 34.5284 27.9889 34.5174C27.9889 34.5174 28.0422 34.2125 27.9208 34.0956L27.4774 34.6212L26.0283 33.9075L27.0631 35.0926L26.1869 36.0554C26.0765 36.1657 26.0905 36.3139 26.1366 36.3764L26.5145 36.7045L26.9948 36.4191C27.0186 36.4017 27.0631 36.3966 27.1157 36.3966C27.1772 36.3966 27.2527 36.4039 27.3341 36.4116C27.4286 36.4204 27.5305 36.4301 27.6264 36.4301C27.8222 36.4301 27.9911 36.3894 28.0119 36.2094C27.9938 36.3892 27.9296 36.6088 27.8592 36.8504C27.6963 37.4088 27.4994 38.0836 27.7577 38.6512L28.0326 39.2656L26.261 39.0151L25.4316 40.3868C25.1751 40.8435 25.1351 41.3373 25.3811 41.6066L25.6917 41.9871C25.6917 41.9871 26.1269 41.5355 26.2239 41.237L26.0831 41.086C25.9645 40.9581 25.9705 40.8435 26.0432 40.7062L26.5634 39.8625L28.6546 40.3445L28.7658 40.1602C28.9073 39.9285 29.1119 39.8604 29.3357 39.8604C29.4285 39.8604 29.5226 39.8712 29.6212 39.8864C30.0096 39.962 30.6478 40.0615 31.2868 40.0615C31.988 40.0615 32.6847 39.9395 33.0546 39.5321C33.4431 40.0962 34.0356 40.4169 34.5047 40.6709C34.951 40.9128 35.2858 41.094 35.2272 41.367L34.8226 43.2505C35.0893 43.2403 35.3474 43.2229 35.5934 43.1888ZM33.3912 43.276C33.6143 43.2672 33.8625 43.2636 34.1324 43.2636C34.1324 43.2636 34.7765 41.4199 34.8129 41.3619C34.4527 41.2065 33.7032 40.8165 33.4141 40.6387C33.4764 40.7294 33.5671 40.8241 33.6583 40.9193C33.8482 41.1176 34.0399 41.3175 33.9782 41.4853L33.3912 43.276ZM25.4893 24.0148L25.4056 27.1277L25.7673 27.1821L26.6502 24.1942L26.2025 23.2755L25.4893 24.0148ZM26.3923 28.582C26.2448 28.4913 26.035 28.3315 25.9186 28.092C25.7851 27.8161 25.5939 27.6868 25.3144 27.6868C24.9505 27.6868 24.5621 27.901 24.3946 28.0011C24.2612 28.7694 24.8393 29.4659 25.227 29.6059C25.5775 29.7309 26.0045 29.7569 26.2232 29.7569L26.231 29.7329C26.238 29.7114 26.2462 29.6868 26.2536 29.6582C26.2728 29.5951 26.2907 29.5319 26.3055 29.4629C26.3656 29.1551 26.3871 28.8072 26.3923 28.582ZM31.704 30.6856C32.217 30.335 33.6299 29.3243 34.1783 28.9285C33.7796 28.3578 33.7417 27.6809 33.8307 27.2046C33.569 27.0413 33.3704 26.8546 33.2111 26.6586C32.6255 27.2842 31.5474 28.3137 31.244 28.6032L31.1652 28.6788L31.0858 28.7579L26.9393 28.6925C26.9363 29.0955 26.8696 29.4375 26.8051 29.6888C26.7948 29.7309 26.7828 29.7744 26.771 29.8172L31.704 30.6856ZM29.1948 22.9067C28.6434 22.7093 28.063 22.3505 27.4699 21.7732H21.2354C21.5029 22.4768 21.729 23.2385 21.729 23.9958V31.817H35.5638C34.8722 31.1177 34.8825 30.2326 35.0582 29.6582C34.8574 29.5638 34.6913 29.4506 34.5423 29.3249C34.002 29.7148 32.3527 30.8919 31.9204 31.1882L31.8278 31.2485L26.3997 30.2871H26.2885C26.158 30.2871 25.9675 30.282 25.7599 30.2581C25.7007 30.4976 25.4893 30.6617 25.2471 30.6617C25.2202 30.6617 25.1892 30.6596 25.1603 30.6545C25.0194 30.6298 24.8956 30.5601 24.8141 30.4432C24.7281 30.3292 24.6954 30.1927 24.7185 30.0525L24.7385 29.9377C24.1796 29.5515 23.6629 28.6882 23.8913 27.7783L23.9135 27.6817L23.9929 27.6273C24.0039 27.6185 24.0973 27.5562 24.2381 27.4776L23.8438 27.4189C23.6963 27.3934 23.5969 27.2577 23.6192 27.1153C23.6452 26.9708 23.7837 26.867 23.929 26.8946L24.869 27.0413L24.9549 23.7992L26.3536 22.3505L27.2261 24.1498L26.3055 27.2679L27.1357 27.3964C27.2818 27.4189 27.3811 27.554 27.3589 27.6999C27.3373 27.8313 27.2239 27.9199 27.0934 27.9199C27.0794 27.9199 27.0646 27.9199 27.0505 27.9177L26.3752 27.811C26.3793 27.8205 26.3845 27.8281 26.3897 27.8355C26.3956 27.8438 26.4012 27.8521 26.4055 27.8633C26.4768 28.0092 26.6375 28.113 26.7309 28.1588L30.8686 28.2226C31.0444 28.055 31.4788 27.6388 31.9256 27.1974C30.9065 26.819 30.5374 25.96 30.4751 25.3887C29.9058 25.1511 29.5122 24.7953 29.295 24.3335C29.0297 23.7606 29.1237 23.1856 29.1948 22.9067ZM30.332 11.1718L26.7221 9.97226L27.6739 15.3557L30.332 16.7281V11.1718ZM30.6285 6.72647C33.1999 6.72647 35.5297 7.94636 35.5297 9.30204L35.48 9.63532L34.4527 15.4088L35.48 15.9954L38.1523 17.5218H38.1425C38.1425 17.5218 38.7437 17.8238 39.0172 18.0097C40.0395 18.701 40.2529 19.7097 39.6628 20.1264C39.5154 19.3037 38.8527 18.4447 37.6111 18.4447C36.7156 18.4447 36.0353 18.8942 35.48 19.5753C35.3406 19.7467 35.2073 19.9296 35.0797 20.1264C34.9256 20.3748 34.7707 20.5926 34.6172 20.8023H41.4931C40.9853 21.7972 40.5056 22.8509 40.5056 23.9958V38.8982C40.5056 42.5055 37.6778 44.2272 34.6128 44.2272C34.4334 44.2272 34.2659 44.2266 34.1088 44.226C32.19 44.219 31.8258 44.2178 30.6241 45.3962C29.4169 44.2178 29.0532 44.219 27.1355 44.226C26.9784 44.2266 26.8109 44.2272 26.6317 44.2272C23.5689 44.2272 20.7372 42.5055 20.7372 38.8982V23.9958C20.7372 22.8509 20.2569 21.7972 19.7514 20.8023H26.6249C26.4716 20.5926 26.3159 20.3748 26.1616 20.1264C26.0364 19.9296 25.9023 19.7467 25.7599 19.5753C25.21 18.8971 24.5273 18.4447 23.6326 18.4447C22.3894 18.4447 21.726 19.3037 21.5807 20.1264C20.9907 19.7097 21.2064 18.701 22.2227 18.0097C22.5006 17.8238 23.101 17.5218 23.101 17.5218H23.0914L25.7599 15.9954L26.791 15.4088L25.7644 9.63532L25.7132 9.30204C25.7132 7.94636 28.043 6.72647 30.6143 6.72647H30.6285ZM28.6696 12.9397C29.072 13.2523 29.3212 13.3305 29.3728 13.3467L29.3811 13.3493L29.5575 13.4291V12.536L27.9157 11.86C27.9157 11.86 27.9298 12.3777 28.6696 12.9397ZM29.2682 18.5661V19.5152C29.6032 19.1164 30.2473 19.1977 30.2473 19.1977V20.5659C30.2473 20.5659 30.2258 21.239 29.9812 21.5301H31.3784C31.1369 21.239 31.1131 20.5659 31.1131 20.5659V19.1977C31.1131 19.1977 31.7595 19.1164 32.0916 19.5152V18.5661H29.2682ZM33.3286 11.86C33.3286 11.86 33.3144 12.3777 32.5724 12.9397C32.1687 13.2537 31.9198 13.3312 31.8693 13.3469C31.8641 13.3485 31.861 13.3495 31.86 13.35L31.6867 13.4291V12.536L33.3286 11.86ZM27.2321 35.3528C27.2403 35.2552 27.324 35.1781 27.4256 35.1875C27.5294 35.1912 27.602 35.2806 27.599 35.3761C27.5894 35.4759 27.5026 35.5503 27.404 35.5422C27.301 35.5401 27.2254 35.454 27.2321 35.3528Z" fill="white"/>
</g>
<mask id="mask1_4153_532" style="mask-type:luminance" maskUnits="userSpaceOnUse" x="73" y="17" width="169" height="19">
<path d="M241.985 17.0864H73.2021V35.5959H241.985V17.0864Z" fill="white"/>
</mask>
<g mask="url(#mask1_4153_532)">
<path fill-rule="evenodd" clip-rule="evenodd" d="M205.73 19.341V17.856H200.942V19.341C194.934 19.4703 191.336 21.9561 191.336 26.3467C191.336 30.7375 194.934 33.0296 200.942 33.1589V34.823H205.73V33.1589C211.773 33.0296 215.268 30.6897 215.268 26.2989C215.268 21.9083 211.773 19.4703 205.73 19.341ZM200.942 29.8659C197.641 29.7366 196.188 28.413 196.188 26.3467C196.188 24.2806 197.641 22.7955 200.942 22.6664V29.8659ZM205.73 29.8659V22.6664C209.064 22.7955 210.432 24.2806 210.432 26.3467C210.432 28.413 209.064 29.7366 205.73 29.8659ZM169.383 26.3901C169.383 21.8104 173.241 18.2627 179.672 18.2627C186.072 18.2627 189.93 21.8104 189.93 26.3901C189.93 30.9698 186.072 34.5175 179.672 34.5175C173.241 34.5175 169.383 30.9698 169.383 26.3901ZM174.429 26.3901C174.429 28.9057 176.473 30.7764 179.672 30.7764C182.84 30.7764 184.917 28.9057 184.917 26.3901C184.917 23.8745 182.84 22.0362 179.672 22.0362C176.473 22.0362 174.429 23.8745 174.429 26.3901ZM73.2115 18.6819H73.2021V23.2089H73.2115V23.2546H79.5118V34.0518L82.2218 34.0501L84.2462 34.0624V23.2546H90.5536V23.2089H90.5708L90.5536 21.4195V18.6272H90.5268H90.4114H73.2115V18.6819ZM96.9172 27.6157L105.163 18.6819H109.385V34.0337L104.72 34.0502L104.711 24.9781L104.602 25.1001L96.3566 34.0337H92.1348V18.6819H96.9172V27.6157ZM117.317 28.6055H125.251V34.0337H129.953V18.6819H125.251V24.7207H117.317V18.6819H112.64V34.0337H117.317V28.6055ZM146.322 33.679C145.399 33.937 144.409 34.0337 143.321 34.0337H133.085V18.6819H137.868V22.8102H143.321C144.508 22.8102 145.762 22.8424 146.817 23.2294C149.027 24.0358 150.412 25.8097 150.412 28.3575C150.412 31.0344 148.796 33.0018 146.322 33.679ZM142.496 26.4225H137.868V30.3249H142.496C143.321 30.3249 143.849 30.3249 144.376 30.0991C145.135 29.7766 145.597 29.0993 145.597 28.293C145.597 27.519 145.135 26.8739 144.343 26.6159C143.782 26.4225 143.156 26.4225 142.496 26.4225ZM156.8 28.2284H157.761L163.466 34.0337H169.833L161.884 26.0353L169.536 18.6819H163.532L157.761 24.4551H156.8V18.6819H152.018V34.0337H156.8V28.2284ZM230.948 17.856V19.3401C236.989 19.4692 240.486 21.9072 240.486 26.298C240.486 30.6886 236.989 33.0287 230.948 33.1578V34.8219H226.16V33.1578C220.15 33.0287 216.552 30.7364 216.552 26.3458C216.552 21.9552 220.15 19.4692 226.16 19.3401V17.856H230.948ZM221.406 26.3458C221.406 28.4119 222.859 29.7357 226.16 29.8648V22.6653C222.859 22.7945 221.406 24.2795 221.406 26.3458ZM230.948 22.6653V29.8648C234.282 29.7357 235.648 28.4119 235.648 26.3458C235.648 24.2795 234.282 22.7945 230.948 22.6653Z" fill="white"/>
</g>
</g>
<defs>
<clipPath id="clip0_4153_532">
<rect width="241.343" height="52.4436" fill="white" transform="translate(0.640625 0.119629)"/>
</clipPath>
</defs>
</svg>
