<svg width="45" height="45" viewBox="0 0 45 45" fill="none" xmlns="http://www.w3.org/2000/svg">
<rect x="0.848633" y="0.342773" width="44.1595" height="44.1595" rx="6.18234" fill="black" fill-opacity="0.5"/>
<path d="M22.9285 9.1748C15.6157 9.1748 9.68066 15.1098 9.68066 22.4227C9.68066 29.7355 15.6157 35.6705 22.9285 35.6705C30.2413 35.6705 36.1764 29.7355 36.1764 22.4227C36.1764 15.1098 30.2413 9.1748 22.9285 9.1748ZM29.0755 18.1834C28.8768 20.2765 28.0157 25.3637 27.5785 27.7086C27.3931 28.7022 27.0221 29.0334 26.6777 29.0731C25.9093 29.1393 25.3264 28.5697 24.5845 28.0795C23.4187 27.3111 22.7563 26.8342 21.6302 26.0923C20.3187 25.2312 21.1666 24.7543 21.9217 23.9859C22.1204 23.7872 25.5119 20.7004 25.5781 20.4222C25.5873 20.3801 25.5861 20.3364 25.5745 20.2948C25.563 20.2532 25.5415 20.2151 25.5119 20.1838C25.4324 20.1175 25.3264 20.144 25.2337 20.1573C25.1144 20.1838 23.2597 21.4158 19.6431 23.8534C19.1131 24.2111 18.6362 24.3966 18.2123 24.3834C17.7354 24.3701 16.8345 24.1184 16.1589 23.8932C15.3243 23.6282 14.6751 23.4825 14.7281 23.0188C14.7546 22.7804 15.0858 22.5419 15.7084 22.2902C19.5768 20.6077 22.1469 19.4949 23.4319 18.965C27.1149 17.4282 27.87 17.1633 28.3734 17.1633C28.4794 17.1633 28.7311 17.1898 28.8901 17.3222C29.0225 17.4282 29.0623 17.5739 29.0755 17.6799C29.0623 17.7594 29.0888 17.9979 29.0755 18.1834Z" fill="#C5D86D"/>
</svg>
