<svg width="46" height="46" viewBox="0 0 46 46" fill="none" xmlns="http://www.w3.org/2000/svg">
<rect x="0.95" y="1.04996" width="44.1" height="44.1" rx="22.05" stroke="white" stroke-opacity="0.25" stroke-width="0.9"/>
<path d="M16.7897 22.2867C20.6552 20.6356 23.2328 19.5471 24.5225 19.0212C28.2048 17.5195 28.97 17.2587 29.4687 17.25C29.5784 17.2482 29.8236 17.2748 29.9825 17.4012C30.1167 17.5079 30.1536 17.6521 30.1712 17.7533C30.1889 17.8545 30.2109 18.0849 30.1934 18.265C29.9939 20.3206 29.1304 25.309 28.6911 27.6113C28.5053 28.5855 28.1393 28.9121 27.785 28.9441C27.015 29.0136 26.4302 28.4452 25.6844 27.9659C24.5174 27.2159 23.8581 26.749 22.7253 26.0171C21.4162 25.1713 22.2649 24.7065 23.0109 23.9467C23.2062 23.7479 26.5989 20.7224 26.6645 20.448C26.6728 20.4137 26.6804 20.2857 26.6028 20.2181C26.5253 20.1506 26.4109 20.1737 26.3283 20.1921C26.2113 20.2181 24.3469 21.4262 20.7353 23.8164C20.2061 24.1727 19.7268 24.3462 19.2973 24.3372C18.8239 24.3271 17.9132 24.0747 17.2362 23.8589C16.4058 23.5943 15.7458 23.4544 15.8033 23.005C15.8332 22.7709 16.162 22.5315 16.7897 22.2867Z" fill="white" fill-opacity="0.4"/>
</svg>
