<svg width="46" height="46" viewBox="0 0 46 46" fill="none" xmlns="http://www.w3.org/2000/svg">
<rect x="0.95" y="1.05001" width="44.1" height="44.1" rx="22.05" stroke="white" stroke-opacity="0.25" stroke-width="0.9"/>
<path d="M30.738 18.8947L30.7332 18.876C30.3424 17.3474 28.5804 15.7071 26.9623 15.3659L26.9441 15.3622C24.3269 14.8792 21.6733 14.8792 19.0567 15.3622L19.0379 15.3659C17.4204 15.7071 15.6584 17.3474 15.2671 18.876L15.2628 18.8947C14.7796 21.0294 14.7796 23.1942 15.2628 25.3289L15.2671 25.3476C15.6417 26.811 17.2725 28.3759 18.8301 28.8063V30.5126C18.8301 31.1301 19.608 31.4335 20.0504 30.9878L21.8373 29.1908C22.2249 29.2118 22.6126 29.2234 23.0004 29.2234C24.3178 29.2234 25.6358 29.1029 26.9441 28.8614L26.9623 28.8578C28.5804 28.5165 30.3424 26.8763 30.7332 25.3477L30.738 25.329C31.2212 23.1942 31.2212 21.0294 30.738 18.8947ZM29.324 25.0194C29.063 26.0166 27.7252 27.2564 26.6622 27.4855C25.2707 27.7415 23.8681 27.8509 22.4669 27.8134C22.4391 27.8127 22.4123 27.8231 22.3928 27.8424C22.194 28.0399 21.0881 29.1382 21.0881 29.1382L19.7004 30.5162C19.5989 30.6185 19.4207 30.5489 19.4207 30.4076V27.5809C19.4207 27.5343 19.3862 27.4946 19.3388 27.4856C19.3385 27.4855 19.3391 27.4856 19.3388 27.4856C18.2758 27.2565 16.9377 26.0166 16.6763 25.0193C16.2414 23.0898 16.2414 21.1337 16.6763 19.2042C16.9377 18.2069 18.275 16.9671 19.338 16.7381C21.7683 16.2909 24.2325 16.2909 26.6622 16.7381C27.7257 16.9671 29.063 18.2069 29.324 19.2042C29.7593 21.1338 29.7593 23.0898 29.324 25.0194Z" fill="white" fill-opacity="0.4"/>
<path d="M25.3122 26.3241C25.1488 26.2762 24.993 26.2439 24.8484 26.1858C23.3497 25.5843 21.9705 24.8082 20.8779 23.6185C20.2566 22.942 19.7703 22.1782 19.3593 21.3699C19.1643 20.9866 19.0001 20.5883 18.8326 20.1926C18.6799 19.8317 18.9048 19.4589 19.1416 19.187C19.3638 18.9318 19.6498 18.7365 19.9594 18.5926C20.2011 18.4802 20.4395 18.545 20.616 18.7432C20.9976 19.1717 21.3481 19.6221 21.632 20.1188C21.8065 20.4243 21.7586 20.7978 21.4423 21.0057C21.3654 21.0562 21.2954 21.1155 21.2238 21.1726C21.1609 21.2226 21.1018 21.2732 21.0588 21.3409C20.9801 21.4648 20.9763 21.611 21.027 21.7457C21.4171 22.7829 22.0746 23.5893 23.1535 24.0237C23.3262 24.0932 23.4996 24.1741 23.6985 24.1517C24.0316 24.114 24.1394 23.7605 24.3729 23.5758C24.601 23.3953 24.8926 23.3929 25.1384 23.5434C25.3842 23.6939 25.6225 23.8555 25.8594 24.0188C26.0919 24.1791 26.3234 24.3359 26.5378 24.5186C26.744 24.6943 26.8151 24.9248 26.6989 25.1633C26.4864 25.6 26.177 25.9633 25.7308 26.1952C25.6048 26.2606 25.4543 26.2818 25.3122 26.3241C25.4543 26.2818 25.1488 26.2761 25.3122 26.3241Z" fill="white" fill-opacity="0.4"/>
<path d="M23.0041 18.0932C24.9644 18.1464 26.5745 19.405 26.9195 21.2801C26.9783 21.5995 26.9993 21.9262 27.0254 22.2505C27.0364 22.3868 26.9566 22.5164 26.8044 22.5182C26.6473 22.52 26.5766 22.3928 26.5664 22.2565C26.5462 21.9866 26.5322 21.7155 26.4938 21.4479C26.2908 20.0351 25.1264 18.8662 23.6729 18.6154C23.4542 18.5776 23.2303 18.5677 23.0088 18.5452C22.8687 18.531 22.6853 18.5228 22.6542 18.3543C22.6282 18.2131 22.7514 18.1007 22.8904 18.0934C22.9282 18.0914 22.9662 18.0931 23.0041 18.0932C24.9644 18.1464 22.9662 18.0931 23.0041 18.0932Z" fill="white" fill-opacity="0.4"/>
<path d="M25.9831 21.8295C25.9798 21.8532 25.9781 21.9089 25.9638 21.9614C25.9118 22.1518 25.6134 22.1756 25.5447 21.9834C25.5243 21.9264 25.5213 21.8615 25.5212 21.8002C25.5205 21.3984 25.4302 20.9972 25.2208 20.6477C25.0056 20.2884 24.6768 19.9865 24.2911 19.8037C24.0579 19.6933 23.8057 19.6246 23.5501 19.5837C23.4384 19.5658 23.3255 19.5549 23.2133 19.5398C23.0772 19.5215 23.0046 19.4377 23.011 19.308C23.017 19.1864 23.1088 19.099 23.2457 19.1065C23.6956 19.1312 24.1301 19.2253 24.5301 19.4302C25.3434 19.8469 25.808 20.5047 25.9436 21.383C25.9497 21.4228 25.9596 21.4622 25.9627 21.5021C25.9704 21.6008 25.9752 21.6995 25.9831 21.8295C25.9798 21.8532 25.9752 21.6995 25.9831 21.8295Z" fill="white" fill-opacity="0.4"/>
<path d="M24.7639 21.7836C24.5999 21.7865 24.5121 21.6986 24.4952 21.5532C24.4835 21.4517 24.4742 21.3489 24.4492 21.2502C24.3999 21.0559 24.2931 20.8758 24.1241 20.7567C24.0443 20.7004 23.9539 20.6594 23.8592 20.633C23.7389 20.5994 23.614 20.6086 23.4939 20.5802C23.3636 20.5493 23.2915 20.4472 23.312 20.3288C23.3306 20.2212 23.4389 20.1371 23.5605 20.1456C24.3205 20.1987 24.8637 20.5789 24.9412 21.4445C24.9467 21.5056 24.9532 21.5701 24.9392 21.6286C24.9152 21.7286 24.8386 21.7787 24.7639 21.7836C24.8386 21.7787 24.5999 21.7865 24.7639 21.7836Z" fill="white" fill-opacity="0.4"/>
</svg>
