<svg width="46" height="46" viewBox="0 0 46 46" fill="none" xmlns="http://www.w3.org/2000/svg">
<rect x="0.95" y="1.04996" width="44.1" height="44.1" rx="22.05" stroke="white" stroke-opacity="0.25" stroke-width="0.9"/>
<path fill-rule="evenodd" clip-rule="evenodd" d="M28.6704 17.3287C27.1516 15.8099 25.1266 14.9999 23.0004 14.9999C18.5454 14.9999 14.9004 18.6449 14.9004 23.0999C14.9004 24.5174 15.3054 25.9349 16.0141 27.1499L14.9004 31.1999L19.1529 30.0862C20.3679 30.6937 21.6841 31.0987 23.0004 31.0987C27.4554 31.0987 31.1004 27.4537 31.1004 22.9987C31.1004 20.8724 30.1891 18.8474 28.6704 17.3287ZM23.0004 29.7824C21.7854 29.7824 20.5704 29.4787 19.5579 28.8712L19.3554 28.7699L16.8241 29.4787L17.5329 27.0487L17.3304 26.7449C16.6216 25.6312 16.3179 24.4162 16.3179 23.2012C16.3179 19.5562 19.3554 16.5187 23.0004 16.5187C24.8229 16.5187 26.4429 17.2274 27.7592 18.4424C29.0754 19.7587 29.6829 21.3787 29.6829 23.2012C29.6829 26.7449 26.7466 29.7824 23.0004 29.7824ZM26.6454 24.7199C26.4429 24.6187 25.4304 24.1124 25.2279 24.1124C25.0254 24.0112 24.9241 24.0112 24.8229 24.2137C24.7216 24.4162 24.3167 24.8212 24.2154 25.0237C24.1142 25.1249 24.0129 25.1249 23.8104 25.1249C23.6079 25.0237 23.0004 24.8212 22.1904 24.1124C21.5829 23.6062 21.1779 22.8974 21.0766 22.6949C20.9754 22.4924 21.0767 22.3912 21.1779 22.2899C21.2792 22.1887 21.3804 22.0874 21.4816 21.9862C21.5829 21.8849 21.5829 21.7837 21.6842 21.6824C21.7854 21.5812 21.6842 21.4799 21.6842 21.3787C21.6842 21.2774 21.2791 20.2649 21.0766 19.8599C20.9754 19.5562 20.7729 19.5562 20.6717 19.5562C20.5704 19.5562 20.4691 19.5562 20.2666 19.5562C20.1654 19.5562 19.9629 19.5562 19.7604 19.7587C19.5579 19.9612 19.0516 20.4674 19.0516 21.4799C19.0516 22.4924 19.7604 23.4037 19.8616 23.6062C19.9629 23.7074 21.2791 25.8337 23.3041 26.6437C25.0254 27.3524 25.3292 27.1499 25.7342 27.1499C26.1392 27.1499 26.9491 26.6437 27.0504 26.2387C27.2529 25.7324 27.2529 25.3274 27.1516 25.3274C27.0504 24.8212 26.8479 24.8212 26.6454 24.7199Z" fill="white" fill-opacity="0.4"/>
</svg>
