<svg width="2349" height="1258" viewBox="0 0 2349 1258" fill="none" xmlns="http://www.w3.org/2000/svg">
<g style="mix-blend-mode:overlay" opacity="0.2" filter="url(#filter0_f_6002_413)">
<path d="M1405 596.813C1405 405.273 1560.27 250 1751.81 250V250C1943.35 250 2098.63 405.273 2098.63 596.813V596.813C2098.63 788.352 1943.35 943.625 1751.81 943.625V943.625C1560.27 943.625 1405 788.352 1405 596.813V596.813Z" fill="#313BFF"/>
</g>
<g style="mix-blend-mode:overlay" opacity="0.2" filter="url(#filter1_f_6002_413)">
<path d="M250 661.19C250 469.65 405.273 314.377 596.813 314.377V314.377C788.352 314.377 943.625 469.65 943.625 661.19V661.19C943.625 852.729 788.352 1008 596.813 1008V1008C405.273 1008 250 852.729 250 661.19V661.19Z" fill="#00FFD5"/>
</g>
<defs>
<filter id="filter0_f_6002_413" x="1155" y="0" width="1193.63" height="1193.63" filterUnits="userSpaceOnUse" color-interpolation-filters="sRGB">
<feFlood flood-opacity="0" result="BackgroundImageFix"/>
<feBlend mode="normal" in="SourceGraphic" in2="BackgroundImageFix" result="shape"/>
<feGaussianBlur stdDeviation="125" result="effect1_foregroundBlur_6002_413"/>
</filter>
<filter id="filter1_f_6002_413" x="0" y="64.377" width="1193.63" height="1193.63" filterUnits="userSpaceOnUse" color-interpolation-filters="sRGB">
<feFlood flood-opacity="0" result="BackgroundImageFix"/>
<feBlend mode="normal" in="SourceGraphic" in2="BackgroundImageFix" result="shape"/>
<feGaussianBlur stdDeviation="125" result="effect1_foregroundBlur_6002_413"/>
</filter>
</defs>
</svg>
