<svg width="1728" height="1966" viewBox="0 0 1728 1966" fill="none" xmlns="http://www.w3.org/2000/svg">
<g style="mix-blend-mode:overlay" opacity="0.2" filter="url(#filter0_f_6002_416)">
<path d="M-78 596.813C-78 405.273 77.2734 250 268.813 250C460.352 250 615.625 405.273 615.625 596.813C615.625 788.352 460.352 943.625 268.813 943.625C77.2734 943.625 -78 788.352 -78 596.813Z" fill="#1500FF"/>
</g>
<g style="mix-blend-mode:overlay" opacity="0.2" filter="url(#filter1_f_6002_416)">
<path d="M1130 596.813C1130 405.273 1285.27 250 1476.81 250H2249.19C2440.73 250 2596 405.273 2596 596.813V1369.19C2596 1560.73 2440.73 1716 2249.19 1716H1476.81C1285.27 1716 1130 1560.73 1130 1369.19V596.813Z" fill="#006F5E"/>
</g>
<defs>
<filter id="filter0_f_6002_416" x="-328" y="0" width="1193.62" height="1193.63" filterUnits="userSpaceOnUse" color-interpolation-filters="sRGB">
<feFlood flood-opacity="0" result="BackgroundImageFix"/>
<feBlend mode="normal" in="SourceGraphic" in2="BackgroundImageFix" result="shape"/>
<feGaussianBlur stdDeviation="125" result="effect1_foregroundBlur_6002_416"/>
</filter>
<filter id="filter1_f_6002_416" x="880" y="0" width="1966" height="1966" filterUnits="userSpaceOnUse" color-interpolation-filters="sRGB">
<feFlood flood-opacity="0" result="BackgroundImageFix"/>
<feBlend mode="normal" in="SourceGraphic" in2="BackgroundImageFix" result="shape"/>
<feGaussianBlur stdDeviation="125" result="effect1_foregroundBlur_6002_416"/>
</filter>
</defs>
</svg>
