<svg width="320" height="6306" viewBox="0 0 320 6306" fill="none" xmlns="http://www.w3.org/2000/svg">
<g style="mix-blend-mode:overlay">
<g style="mix-blend-mode:overlay" filter="url(#filter0_f_4153_9301)">
<path opacity="0.1" d="M-89.2236 -71.9929L45.0551 -83.1426L49.6648 198.04L-89.2236 -71.9929Z" fill="#55FFAD"/>
</g>
</g>
<g style="mix-blend-mode:overlay">
<g style="mix-blend-mode:overlay" filter="url(#filter1_f_4153_9301)">
<path opacity="0.2" d="M387.854 -32.0928L283.712 -40.7402L280.137 177.339L387.854 -32.0928Z" fill="#61FFFF"/>
</g>
</g>
<g style="mix-blend-mode:overlay" opacity="0.2" filter="url(#filter2_f_4153_9301)">
<path d="M127.197 29.4469C127.197 -20.9327 168.038 -61.7734 218.418 -61.7734C268.797 -61.7734 309.638 -20.9327 309.638 29.4469C309.638 79.8266 268.797 120.667 218.418 120.667C168.038 120.667 127.197 79.8266 127.197 29.4469Z" fill="#2C36F1"/>
</g>
<g style="mix-blend-mode:overlay" opacity="0.2" filter="url(#filter3_f_4153_9301)">
<path d="M-0.854492 46.3805C-0.854492 -3.99909 39.9863 -44.8398 90.3659 -44.8398C140.746 -44.8398 181.586 -3.99909 181.586 46.3805C181.586 96.7602 140.746 137.601 90.3659 137.601C39.9863 137.601 -0.854492 96.7602 -0.854492 46.3805Z" fill="#002560"/>
</g>
<g style="mix-blend-mode:overlay" opacity="0.2" filter="url(#filter4_f_4153_9301)">
<path d="M247.482 305.585C247.482 256.592 287.199 216.875 336.193 216.875C385.186 216.875 424.903 256.592 424.903 305.585C424.903 354.578 385.186 394.295 336.193 394.295C287.199 394.295 247.482 354.578 247.482 305.585Z" fill="#313BFF"/>
</g>
<g style="mix-blend-mode:overlay" opacity="0.2" filter="url(#filter5_f_4153_9301)">
<path d="M-47.9512 661.214C-47.9512 612.221 -8.23428 572.504 40.759 572.504C89.7523 572.504 129.469 612.221 129.469 661.214C129.469 710.207 89.7523 749.924 40.759 749.924C-8.23428 749.924 -47.9512 710.207 -47.9512 661.214Z" fill="#00FFD5"/>
</g>
<g style="mix-blend-mode:overlay" opacity="0.2" filter="url(#filter6_f_4153_9301)">
<path d="M-47.9512 934.214C-47.9512 885.221 -8.23428 845.504 40.759 845.504C89.7523 845.504 129.469 885.221 129.469 934.214C129.469 983.207 89.7523 1022.92 40.759 1022.92C-8.23428 1022.92 -47.9512 983.207 -47.9512 934.214Z" fill="#1500FF"/>
</g>
<g style="mix-blend-mode:overlay" opacity="0.2" filter="url(#filter7_f_4153_9301)">
<path d="M261.039 680.792C261.039 631.799 300.756 592.082 349.749 592.082H547.313C596.306 592.082 636.023 631.799 636.023 680.792V878.356C636.023 927.349 596.306 967.066 547.313 967.066H349.749C300.756 967.066 261.039 927.349 261.039 878.356V680.792Z" fill="#006F5E"/>
</g>
<g style="mix-blend-mode:overlay" opacity="0.2" filter="url(#filter8_f_4153_9301)">
<path d="M298.896 1132.8C298.896 1083.81 338.613 1044.09 387.607 1044.09H585.17C634.163 1044.09 673.88 1083.81 673.88 1132.8V1330.37C673.88 1379.36 634.163 1419.08 585.17 1419.08H387.607C338.613 1419.08 298.896 1379.36 298.896 1330.37V1132.8Z" fill="#5500FF" fill-opacity="0.5"/>
</g>
<g style="mix-blend-mode:overlay" opacity="0.2" filter="url(#filter9_f_4153_9301)">
<path d="M-228.281 1593.21C-228.281 1544.22 -188.564 1504.5 -139.571 1504.5H57.9923C106.986 1504.5 146.703 1544.22 146.703 1593.21V1790.78C146.703 1839.77 106.986 1879.49 57.9924 1879.49H-139.571C-188.564 1879.49 -228.281 1839.77 -228.281 1790.78V1593.21Z" fill="#00EEFF" fill-opacity="0.5"/>
</g>
<g style="mix-blend-mode:overlay" opacity="0.2" filter="url(#filter10_f_4153_9301)">
<path d="M298.896 3451.71C298.896 3402.72 338.613 3363 387.607 3363H585.17C634.163 3363 673.88 3402.72 673.88 3451.71V3649.27C673.88 3698.27 634.163 3737.98 585.17 3737.98H387.607C338.613 3737.98 298.896 3698.27 298.896 3649.27V3451.71Z" fill="#5500FF" fill-opacity="0.5"/>
</g>
<g style="mix-blend-mode:overlay" opacity="0.2" filter="url(#filter11_f_4153_9301)">
<path d="M-228.281 3912.12C-228.281 3863.13 -188.564 3823.41 -139.571 3823.41H57.9923C106.986 3823.41 146.703 3863.13 146.703 3912.12V4109.69C146.703 4158.68 106.986 4198.4 57.9924 4198.4H-139.571C-188.564 4198.4 -228.281 4158.68 -228.281 4109.69V3912.12Z" fill="#00EEFF" fill-opacity="0.5"/>
</g>
<g style="mix-blend-mode:overlay" opacity="0.2" filter="url(#filter12_f_4153_9301)">
<path d="M-228.281 2002.47C-228.281 1953.48 -188.564 1913.76 -139.571 1913.76H57.9923C106.986 1913.76 146.703 1953.48 146.703 2002.47V2200.04C146.703 2249.03 106.986 2288.75 57.9924 2288.75H-139.571C-188.564 2288.75 -228.281 2249.03 -228.281 2200.04V2002.47Z" fill="#4548FF"/>
</g>
<g style="mix-blend-mode:overlay" opacity="0.2" filter="url(#filter13_f_4153_9301)">
<path d="M193 1978.69C193 1929.69 232.717 1889.98 281.71 1889.98H479.274C528.267 1889.98 567.984 1929.69 567.984 1978.69V2176.25C567.984 2225.24 528.267 2264.96 479.274 2264.96H281.71C232.717 2264.96 193 2225.24 193 2176.25V1978.69Z" fill="#002AFF" fill-opacity="0.74"/>
</g>
<g style="mix-blend-mode:overlay" opacity="0.2" filter="url(#filter14_f_4153_9301)">
<path d="M-228.281 4508.5C-228.281 4459.5 -188.564 4419.79 -139.571 4419.79H57.9923C106.986 4419.79 146.703 4459.5 146.703 4508.5V4706.06C146.703 4755.05 106.986 4794.77 57.9924 4794.77H-139.571C-188.564 4794.77 -228.281 4755.05 -228.281 4706.06V4508.5Z" fill="#4548FF"/>
</g>
<g style="mix-blend-mode:overlay" opacity="0.2" filter="url(#filter15_f_4153_9301)">
<path d="M193 4484.71C193 4435.72 232.717 4396 281.71 4396H479.274C528.267 4396 567.984 4435.72 567.984 4484.71V4682.27C567.984 4731.27 528.267 4770.98 479.274 4770.98H281.71C232.717 4770.98 193 4731.27 193 4682.27V4484.71Z" fill="#002AFF" fill-opacity="0.74"/>
</g>
<g style="mix-blend-mode:overlay" opacity="0.2" filter="url(#filter16_f_4153_9301)">
<path d="M-228.281 5157.5C-228.281 5108.5 -188.564 5068.79 -139.571 5068.79H57.9923C106.986 5068.79 146.703 5108.5 146.703 5157.5V5355.06C146.703 5404.05 106.986 5443.77 57.9924 5443.77H-139.571C-188.564 5443.77 -228.281 5404.05 -228.281 5355.06V5157.5Z" fill="#459CFF"/>
</g>
<g style="mix-blend-mode:overlay" opacity="0.2" filter="url(#filter17_f_4153_9301)">
<path d="M193 4929.71C193 4880.72 232.717 4841 281.71 4841H479.274C528.267 4841 567.984 4880.72 567.984 4929.71V5127.27C567.984 5176.27 528.267 5215.98 479.274 5215.98H281.71C232.717 5215.98 193 5176.27 193 5127.27V4929.71Z" fill="#002AFF" fill-opacity="0.74"/>
</g>
<g style="mix-blend-mode:overlay" opacity="0.2" filter="url(#filter18_f_4153_9301)">
<path d="M-228.281 2810.5C-228.281 2761.5 -188.564 2721.79 -139.571 2721.79H57.9923C106.986 2721.79 146.703 2761.5 146.703 2810.5V3008.06C146.703 3057.05 106.986 3096.77 57.9924 3096.77H-139.571C-188.564 3096.77 -228.281 3057.05 -228.281 3008.06V2810.5Z" fill="#4548FF"/>
</g>
<g style="mix-blend-mode:overlay" opacity="0.2" filter="url(#filter19_f_4153_9301)">
<path d="M193 2786.71C193 2737.72 232.717 2698 281.71 2698H479.274C528.267 2698 567.984 2737.72 567.984 2786.71V2984.27C567.984 3033.27 528.267 3072.98 479.274 3072.98H281.71C232.717 3072.98 193 3033.27 193 2984.27V2786.71Z" fill="#002AFF" fill-opacity="0.74"/>
</g>
<defs>
<filter id="filter0_f_4153_9301" x="-130.05" y="-123.968" width="220.54" height="362.834" filterUnits="userSpaceOnUse" color-interpolation-filters="sRGB">
<feFlood flood-opacity="0" result="BackgroundImageFix"/>
<feBlend mode="normal" in="SourceGraphic" in2="BackgroundImageFix" result="shape"/>
<feGaussianBlur stdDeviation="20.413" result="effect1_foregroundBlur_4153_9301"/>
</filter>
<filter id="filter1_f_4153_9301" x="239.311" y="-81.5661" width="189.37" height="299.731" filterUnits="userSpaceOnUse" color-interpolation-filters="sRGB">
<feFlood flood-opacity="0" result="BackgroundImageFix"/>
<feBlend mode="normal" in="SourceGraphic" in2="BackgroundImageFix" result="shape"/>
<feGaussianBlur stdDeviation="20.413" result="effect1_foregroundBlur_4153_9301"/>
</filter>
<filter id="filter2_f_4153_9301" x="86.3714" y="-102.599" width="264.092" height="264.093" filterUnits="userSpaceOnUse" color-interpolation-filters="sRGB">
<feFlood flood-opacity="0" result="BackgroundImageFix"/>
<feBlend mode="normal" in="SourceGraphic" in2="BackgroundImageFix" result="shape"/>
<feGaussianBlur stdDeviation="20.413" result="effect1_foregroundBlur_4153_9301"/>
</filter>
<filter id="filter3_f_4153_9301" x="-41.6804" y="-85.6658" width="264.092" height="264.093" filterUnits="userSpaceOnUse" color-interpolation-filters="sRGB">
<feFlood flood-opacity="0" result="BackgroundImageFix"/>
<feBlend mode="normal" in="SourceGraphic" in2="BackgroundImageFix" result="shape"/>
<feGaussianBlur stdDeviation="20.413" result="effect1_foregroundBlur_4153_9301"/>
</filter>
<filter id="filter4_f_4153_9301" x="47.4824" y="16.875" width="577.42" height="577.42" filterUnits="userSpaceOnUse" color-interpolation-filters="sRGB">
<feFlood flood-opacity="0" result="BackgroundImageFix"/>
<feBlend mode="normal" in="SourceGraphic" in2="BackgroundImageFix" result="shape"/>
<feGaussianBlur stdDeviation="100" result="effect1_foregroundBlur_4153_9301"/>
</filter>
<filter id="filter5_f_4153_9301" x="-247.951" y="372.504" width="577.42" height="577.42" filterUnits="userSpaceOnUse" color-interpolation-filters="sRGB">
<feFlood flood-opacity="0" result="BackgroundImageFix"/>
<feBlend mode="normal" in="SourceGraphic" in2="BackgroundImageFix" result="shape"/>
<feGaussianBlur stdDeviation="100" result="effect1_foregroundBlur_4153_9301"/>
</filter>
<filter id="filter6_f_4153_9301" x="-247.951" y="645.504" width="577.42" height="577.42" filterUnits="userSpaceOnUse" color-interpolation-filters="sRGB">
<feFlood flood-opacity="0" result="BackgroundImageFix"/>
<feBlend mode="normal" in="SourceGraphic" in2="BackgroundImageFix" result="shape"/>
<feGaussianBlur stdDeviation="100" result="effect1_foregroundBlur_4153_9301"/>
</filter>
<filter id="filter7_f_4153_9301" x="61.0391" y="392.082" width="774.983" height="774.984" filterUnits="userSpaceOnUse" color-interpolation-filters="sRGB">
<feFlood flood-opacity="0" result="BackgroundImageFix"/>
<feBlend mode="normal" in="SourceGraphic" in2="BackgroundImageFix" result="shape"/>
<feGaussianBlur stdDeviation="100" result="effect1_foregroundBlur_4153_9301"/>
</filter>
<filter id="filter8_f_4153_9301" x="171.003" y="916.198" width="630.77" height="630.771" filterUnits="userSpaceOnUse" color-interpolation-filters="sRGB">
<feFlood flood-opacity="0" result="BackgroundImageFix"/>
<feBlend mode="normal" in="SourceGraphic" in2="BackgroundImageFix" result="shape"/>
<feGaussianBlur stdDeviation="63.9468" result="effect1_foregroundBlur_4153_9301"/>
</filter>
<filter id="filter9_f_4153_9301" x="-356.175" y="1376.61" width="630.77" height="630.771" filterUnits="userSpaceOnUse" color-interpolation-filters="sRGB">
<feFlood flood-opacity="0" result="BackgroundImageFix"/>
<feBlend mode="normal" in="SourceGraphic" in2="BackgroundImageFix" result="shape"/>
<feGaussianBlur stdDeviation="63.9468" result="effect1_foregroundBlur_4153_9301"/>
</filter>
<filter id="filter10_f_4153_9301" x="171.003" y="3235.11" width="630.77" height="630.771" filterUnits="userSpaceOnUse" color-interpolation-filters="sRGB">
<feFlood flood-opacity="0" result="BackgroundImageFix"/>
<feBlend mode="normal" in="SourceGraphic" in2="BackgroundImageFix" result="shape"/>
<feGaussianBlur stdDeviation="63.9468" result="effect1_foregroundBlur_4153_9301"/>
</filter>
<filter id="filter11_f_4153_9301" x="-356.175" y="3695.52" width="630.77" height="630.771" filterUnits="userSpaceOnUse" color-interpolation-filters="sRGB">
<feFlood flood-opacity="0" result="BackgroundImageFix"/>
<feBlend mode="normal" in="SourceGraphic" in2="BackgroundImageFix" result="shape"/>
<feGaussianBlur stdDeviation="63.9468" result="effect1_foregroundBlur_4153_9301"/>
</filter>
<filter id="filter12_f_4153_9301" x="-356.175" y="1785.87" width="630.77" height="630.771" filterUnits="userSpaceOnUse" color-interpolation-filters="sRGB">
<feFlood flood-opacity="0" result="BackgroundImageFix"/>
<feBlend mode="normal" in="SourceGraphic" in2="BackgroundImageFix" result="shape"/>
<feGaussianBlur stdDeviation="63.9468" result="effect1_foregroundBlur_4153_9301"/>
</filter>
<filter id="filter13_f_4153_9301" x="65.1065" y="1762.08" width="630.77" height="630.771" filterUnits="userSpaceOnUse" color-interpolation-filters="sRGB">
<feFlood flood-opacity="0" result="BackgroundImageFix"/>
<feBlend mode="normal" in="SourceGraphic" in2="BackgroundImageFix" result="shape"/>
<feGaussianBlur stdDeviation="63.9468" result="effect1_foregroundBlur_4153_9301"/>
</filter>
<filter id="filter14_f_4153_9301" x="-356.175" y="4291.89" width="630.77" height="630.771" filterUnits="userSpaceOnUse" color-interpolation-filters="sRGB">
<feFlood flood-opacity="0" result="BackgroundImageFix"/>
<feBlend mode="normal" in="SourceGraphic" in2="BackgroundImageFix" result="shape"/>
<feGaussianBlur stdDeviation="63.9468" result="effect1_foregroundBlur_4153_9301"/>
</filter>
<filter id="filter15_f_4153_9301" x="65.1065" y="4268.11" width="630.77" height="630.771" filterUnits="userSpaceOnUse" color-interpolation-filters="sRGB">
<feFlood flood-opacity="0" result="BackgroundImageFix"/>
<feBlend mode="normal" in="SourceGraphic" in2="BackgroundImageFix" result="shape"/>
<feGaussianBlur stdDeviation="63.9468" result="effect1_foregroundBlur_4153_9301"/>
</filter>
<filter id="filter16_f_4153_9301" x="-356.175" y="4940.89" width="630.77" height="630.771" filterUnits="userSpaceOnUse" color-interpolation-filters="sRGB">
<feFlood flood-opacity="0" result="BackgroundImageFix"/>
<feBlend mode="normal" in="SourceGraphic" in2="BackgroundImageFix" result="shape"/>
<feGaussianBlur stdDeviation="63.9468" result="effect1_foregroundBlur_4153_9301"/>
</filter>
<filter id="filter17_f_4153_9301" x="65.1065" y="4713.11" width="630.77" height="630.771" filterUnits="userSpaceOnUse" color-interpolation-filters="sRGB">
<feFlood flood-opacity="0" result="BackgroundImageFix"/>
<feBlend mode="normal" in="SourceGraphic" in2="BackgroundImageFix" result="shape"/>
<feGaussianBlur stdDeviation="63.9468" result="effect1_foregroundBlur_4153_9301"/>
</filter>
<filter id="filter18_f_4153_9301" x="-356.175" y="2593.89" width="630.77" height="630.771" filterUnits="userSpaceOnUse" color-interpolation-filters="sRGB">
<feFlood flood-opacity="0" result="BackgroundImageFix"/>
<feBlend mode="normal" in="SourceGraphic" in2="BackgroundImageFix" result="shape"/>
<feGaussianBlur stdDeviation="63.9468" result="effect1_foregroundBlur_4153_9301"/>
</filter>
<filter id="filter19_f_4153_9301" x="65.1065" y="2570.11" width="630.77" height="630.771" filterUnits="userSpaceOnUse" color-interpolation-filters="sRGB">
<feFlood flood-opacity="0" result="BackgroundImageFix"/>
<feBlend mode="normal" in="SourceGraphic" in2="BackgroundImageFix" result="shape"/>
<feGaussianBlur stdDeviation="63.9468" result="effect1_foregroundBlur_4153_9301"/>
</filter>
</defs>
</svg>
