<svg width="1728" height="8233" viewBox="0 0 1728 8233" fill="none" xmlns="http://www.w3.org/2000/svg">
<g style="mix-blend-mode:overlay" clip-path="url(#clip0_4153_384)">
<g style="mix-blend-mode:overlay" filter="url(#filter0_f_4153_384)">
<path opacity="0.1" d="M-184.972 -324.229L325.545 -366.619L343.071 702.414L-184.972 -324.229Z" fill="#55FFAD"/>
</g>
</g>
<g style="mix-blend-mode:overlay">
<g style="mix-blend-mode:overlay" filter="url(#filter1_f_4153_384)">
<path opacity="0.2" d="M1628.84 -172.529L1232.9 -205.406L1219.31 623.713L1628.84 -172.529Z" fill="#61FFFF"/>
</g>
</g>
<g style="mix-blend-mode:overlay" opacity="0.2" filter="url(#filter2_f_4153_384)">
<path d="M637.844 61.4357C637.844 -130.104 793.118 -285.377 984.657 -285.377C1176.2 -285.377 1331.47 -130.104 1331.47 61.4357C1331.47 252.975 1176.2 408.248 984.657 408.248C793.118 408.248 637.844 252.975 637.844 61.4357Z" fill="#2C36F1"/>
</g>
<g style="mix-blend-mode:overlay" opacity="0.2" filter="url(#filter3_f_4153_384)">
<path d="M151 125.813C151 -65.7266 306.273 -221 497.813 -221C689.352 -221 844.625 -65.7266 844.625 125.813C844.625 317.352 689.352 472.625 497.813 472.625C306.273 472.625 151 317.352 151 125.813Z" fill="#002560"/>
</g>
<g style="mix-blend-mode:overlay" opacity="0.2" filter="url(#filter4_f_4153_384)">
<path d="M1077 1150.81C1077 959.273 1232.27 804 1423.81 804C1615.35 804 1770.63 959.273 1770.63 1150.81C1770.63 1342.35 1615.35 1497.63 1423.81 1497.63C1232.27 1497.63 1077 1342.35 1077 1150.81Z" fill="#313BFF"/>
</g>
<g style="mix-blend-mode:overlay" opacity="0.2" filter="url(#filter5_f_4153_384)">
<path d="M-78 1215.19C-78 1023.65 77.2734 868.377 268.813 868.377C460.352 868.377 615.625 1023.65 615.625 1215.19C615.625 1406.73 460.352 1562 268.813 1562C77.2734 1562 -78 1406.73 -78 1215.19Z" fill="#00FFD5"/>
</g>
<g style="mix-blend-mode:overlay" opacity="0.2" filter="url(#filter6_f_4153_384)">
<path d="M-78 2136.81C-78 1945.27 77.2734 1790 268.813 1790C460.352 1790 615.625 1945.27 615.625 2136.81C615.625 2328.35 460.352 2483.63 268.813 2483.63C77.2734 2483.63 -78 2328.35 -78 2136.81Z" fill="#1500FF"/>
</g>
<g style="mix-blend-mode:overlay" opacity="0.2" filter="url(#filter7_f_4153_384)">
<path d="M1130 2136.81C1130 1945.27 1285.27 1790 1476.81 1790H2249.19C2440.73 1790 2596 1945.27 2596 2136.81V2909.19C2596 3100.73 2440.73 3256 2249.19 3256H1476.81C1285.27 3256 1130 3100.73 1130 2909.19V2136.81Z" fill="#006F5E"/>
</g>
<g style="mix-blend-mode:overlay" opacity="0.2" filter="url(#filter8_f_4153_384)">
<path d="M1278 4384.81C1278 4193.27 1433.27 4038 1624.81 4038H2397.19C2588.73 4038 2744 4193.27 2744 4384.81V5157.19C2744 5348.73 2588.73 5504 2397.19 5504H1624.81C1433.27 5504 1278 5348.73 1278 5157.19V4384.81Z" fill="#5500FF" fill-opacity="0.5"/>
</g>
<g style="mix-blend-mode:overlay" opacity="0.2" filter="url(#filter9_f_4153_384)">
<path d="M-783 4471.81C-783 4280.27 -627.727 4125 -436.187 4125H336.187C527.727 4125 683 4280.27 683 4471.81V5244.19C683 5435.73 527.727 5591 336.187 5591H-436.187C-627.727 5591 -783 5435.73 -783 5244.19V4471.81Z" fill="#00EEFF" fill-opacity="0.5"/>
</g>
<g style="mix-blend-mode:overlay" opacity="0.2" filter="url(#filter10_f_4153_384)">
<path d="M-783 6071.81C-783 5880.27 -627.727 5725 -436.187 5725H336.187C527.727 5725 683 5880.27 683 6071.81V6844.19C683 7035.73 527.727 7191 336.187 7191H-436.187C-627.727 7191 -783 7035.73 -783 6844.19V6071.81Z" fill="#4548FF"/>
</g>
<g style="mix-blend-mode:overlay" opacity="0.2" filter="url(#filter11_f_4153_384)">
<path d="M864 5978.81C864 5787.27 1019.27 5632 1210.81 5632H1983.19C2174.73 5632 2330 5787.27 2330 5978.81V6751.19C2330 6942.73 2174.73 7098 1983.19 7098H1210.81C1019.27 7098 864 6942.73 864 6751.19V5978.81Z" fill="#002AFF" fill-opacity="0.74"/>
</g>
<defs>
<filter id="filter0_f_4153_384" x="-340.189" y="-521.836" width="838.476" height="1379.47" filterUnits="userSpaceOnUse" color-interpolation-filters="sRGB">
<feFlood flood-opacity="0" result="BackgroundImageFix"/>
<feBlend mode="normal" in="SourceGraphic" in2="BackgroundImageFix" result="shape"/>
<feGaussianBlur stdDeviation="77.6084" result="effect1_foregroundBlur_4153_384"/>
</filter>
<filter id="filter1_f_4153_384" x="1064.09" y="-360.623" width="719.967" height="1139.55" filterUnits="userSpaceOnUse" color-interpolation-filters="sRGB">
<feFlood flood-opacity="0" result="BackgroundImageFix"/>
<feBlend mode="normal" in="SourceGraphic" in2="BackgroundImageFix" result="shape"/>
<feGaussianBlur stdDeviation="77.6084" result="effect1_foregroundBlur_4153_384"/>
</filter>
<filter id="filter2_f_4153_384" x="482.627" y="-440.594" width="1004.06" height="1004.06" filterUnits="userSpaceOnUse" color-interpolation-filters="sRGB">
<feFlood flood-opacity="0" result="BackgroundImageFix"/>
<feBlend mode="normal" in="SourceGraphic" in2="BackgroundImageFix" result="shape"/>
<feGaussianBlur stdDeviation="77.6084" result="effect1_foregroundBlur_4153_384"/>
</filter>
<filter id="filter3_f_4153_384" x="-4.21684" y="-376.217" width="1004.06" height="1004.06" filterUnits="userSpaceOnUse" color-interpolation-filters="sRGB">
<feFlood flood-opacity="0" result="BackgroundImageFix"/>
<feBlend mode="normal" in="SourceGraphic" in2="BackgroundImageFix" result="shape"/>
<feGaussianBlur stdDeviation="77.6084" result="effect1_foregroundBlur_4153_384"/>
</filter>
<filter id="filter4_f_4153_384" x="827" y="554" width="1193.62" height="1193.63" filterUnits="userSpaceOnUse" color-interpolation-filters="sRGB">
<feFlood flood-opacity="0" result="BackgroundImageFix"/>
<feBlend mode="normal" in="SourceGraphic" in2="BackgroundImageFix" result="shape"/>
<feGaussianBlur stdDeviation="125" result="effect1_foregroundBlur_4153_384"/>
</filter>
<filter id="filter5_f_4153_384" x="-328" y="618.377" width="1193.62" height="1193.63" filterUnits="userSpaceOnUse" color-interpolation-filters="sRGB">
<feFlood flood-opacity="0" result="BackgroundImageFix"/>
<feBlend mode="normal" in="SourceGraphic" in2="BackgroundImageFix" result="shape"/>
<feGaussianBlur stdDeviation="125" result="effect1_foregroundBlur_4153_384"/>
</filter>
<filter id="filter6_f_4153_384" x="-328" y="1540" width="1193.62" height="1193.63" filterUnits="userSpaceOnUse" color-interpolation-filters="sRGB">
<feFlood flood-opacity="0" result="BackgroundImageFix"/>
<feBlend mode="normal" in="SourceGraphic" in2="BackgroundImageFix" result="shape"/>
<feGaussianBlur stdDeviation="125" result="effect1_foregroundBlur_4153_384"/>
</filter>
<filter id="filter7_f_4153_384" x="880" y="1540" width="1966" height="1966" filterUnits="userSpaceOnUse" color-interpolation-filters="sRGB">
<feFlood flood-opacity="0" result="BackgroundImageFix"/>
<feBlend mode="normal" in="SourceGraphic" in2="BackgroundImageFix" result="shape"/>
<feGaussianBlur stdDeviation="125" result="effect1_foregroundBlur_4153_384"/>
</filter>
<filter id="filter8_f_4153_384" x="778" y="3538" width="2466" height="2466" filterUnits="userSpaceOnUse" color-interpolation-filters="sRGB">
<feFlood flood-opacity="0" result="BackgroundImageFix"/>
<feBlend mode="normal" in="SourceGraphic" in2="BackgroundImageFix" result="shape"/>
<feGaussianBlur stdDeviation="250" result="effect1_foregroundBlur_4153_384"/>
</filter>
<filter id="filter9_f_4153_384" x="-1283" y="3625" width="2466" height="2466" filterUnits="userSpaceOnUse" color-interpolation-filters="sRGB">
<feFlood flood-opacity="0" result="BackgroundImageFix"/>
<feBlend mode="normal" in="SourceGraphic" in2="BackgroundImageFix" result="shape"/>
<feGaussianBlur stdDeviation="250" result="effect1_foregroundBlur_4153_384"/>
</filter>
<filter id="filter10_f_4153_384" x="-1283" y="5225" width="2466" height="2466" filterUnits="userSpaceOnUse" color-interpolation-filters="sRGB">
<feFlood flood-opacity="0" result="BackgroundImageFix"/>
<feBlend mode="normal" in="SourceGraphic" in2="BackgroundImageFix" result="shape"/>
<feGaussianBlur stdDeviation="250" result="effect1_foregroundBlur_4153_384"/>
</filter>
<filter id="filter11_f_4153_384" x="364" y="5132" width="2466" height="2466" filterUnits="userSpaceOnUse" color-interpolation-filters="sRGB">
<feFlood flood-opacity="0" result="BackgroundImageFix"/>
<feBlend mode="normal" in="SourceGraphic" in2="BackgroundImageFix" result="shape"/>
<feGaussianBlur stdDeviation="250" result="effect1_foregroundBlur_4153_384"/>
</filter>
<clipPath id="clip0_4153_384">
<rect width="838.122" height="991.933" fill="white" transform="translate(-340 -133.797)"/>
</clipPath>
</defs>
</svg>
