<svg width="1280" height="8469" viewBox="0 0 1280 8469" fill="none" xmlns="http://www.w3.org/2000/svg">
<g filter="url(#filter0_f_4153_18015)">
<ellipse cx="78.8484" cy="1765.86" rx="310.848" ry="229.861" fill="#50FD8A" fill-opacity="0.4"/>
</g>
<g style="mix-blend-mode:overlay" clip-path="url(#clip0_4153_18015)">
<g style="mix-blend-mode:overlay" filter="url(#filter1_f_4153_18015)">
<path opacity="0.1" d="M-356.895 -287.972L180.22 -332.57L198.659 792.16L-356.895 -287.972Z" fill="#55FFAD"/>
</g>
</g>
<g style="mix-blend-mode:overlay">
<g style="mix-blend-mode:overlay" filter="url(#filter2_f_4153_18015)">
<path opacity="0.2" d="M1551.42 -128.371L1134.85 -162.961L1120.55 709.355L1551.42 -128.371Z" fill="#61FFFF"/>
</g>
</g>
<g style="mix-blend-mode:overlay" opacity="0.2" filter="url(#filter3_f_4153_18015)">
<path d="M508.791 117.788C508.791 -83.7307 672.154 -247.094 873.673 -247.094C1075.19 -247.094 1238.55 -83.7307 1238.55 117.788C1238.55 319.306 1075.19 482.669 873.673 482.669C672.154 482.669 508.791 319.306 508.791 117.788Z" fill="#2C36F1"/>
</g>
<g style="mix-blend-mode:overlay" opacity="0.2" filter="url(#filter4_f_4153_18015)">
<path d="M-3.41895 185.522C-3.41895 -15.9964 159.944 -179.359 361.463 -179.359C562.981 -179.359 726.344 -15.9964 726.344 185.522C726.344 387.041 562.981 550.404 361.463 550.404C159.944 550.404 -3.41895 387.041 -3.41895 185.522Z" fill="#002560"/>
</g>
<g style="mix-blend-mode:overlay" opacity="0.2" filter="url(#filter5_f_4153_18015)">
<path d="M989.93 1222.34C989.93 1026.37 1148.8 867.5 1344.77 867.5C1540.74 867.5 1699.61 1026.37 1699.61 1222.34C1699.61 1418.31 1540.74 1577.18 1344.77 1577.18C1148.8 1577.18 989.93 1418.31 989.93 1222.34Z" fill="#313BFF"/>
</g>
<g style="mix-blend-mode:overlay" opacity="0.2" filter="url(#filter6_f_4153_18015)">
<path d="M-191.806 2644.86C-191.806 2448.88 -32.9381 2290.02 163.035 2290.02C359.008 2290.02 517.876 2448.88 517.876 2644.86C517.876 2840.83 359.008 2999.7 163.035 2999.7C-32.9381 2999.7 -191.806 2840.83 -191.806 2644.86Z" fill="#00FFD5"/>
</g>
<g style="mix-blend-mode:overlay" opacity="0.2" filter="url(#filter7_f_4153_18015)">
<path d="M-191.806 3736.86C-191.806 3540.88 -32.9381 3382.02 163.035 3382.02C359.008 3382.02 517.876 3540.88 517.876 3736.86C517.876 3932.83 359.008 4091.7 163.035 4091.7C-32.9381 4091.7 -191.806 3932.83 -191.806 3736.86Z" fill="#1500FF"/>
</g>
<g style="mix-blend-mode:overlay" opacity="0.2" filter="url(#filter8_f_4153_18015)">
<path d="M1044.16 2723.17C1044.16 2527.2 1203.03 2368.33 1399 2368.33H2189.25C2385.23 2368.33 2544.09 2527.2 2544.09 2723.17V3513.42C2544.09 3709.4 2385.23 3868.26 2189.25 3868.26H1399C1203.03 3868.26 1044.16 3709.4 1044.16 3513.42V2723.17Z" fill="#006F5E"/>
</g>
<g style="mix-blend-mode:overlay" opacity="0.2" filter="url(#filter9_f_4153_18015)">
<path d="M1195.58 4531.21C1195.58 4335.24 1354.45 4176.37 1550.42 4176.37H2340.68C2536.65 4176.37 2695.52 4335.23 2695.52 4531.21V5321.46C2695.52 5517.43 2536.65 5676.3 2340.68 5676.3H1550.43C1354.45 5676.3 1195.58 5517.43 1195.58 5321.46V4531.21Z" fill="#5500FF" fill-opacity="0.5"/>
</g>
<g style="mix-blend-mode:overlay" opacity="0.2" filter="url(#filter10_f_4153_18015)">
<path d="M-913.125 6372.86C-913.125 6176.88 -754.257 6018.02 -558.284 6018.02H231.969C427.942 6018.02 586.81 6176.88 586.81 6372.86V7163.11C586.81 7359.08 427.943 7517.95 231.969 7517.95H-558.284C-754.257 7517.95 -913.125 7359.08 -913.125 7163.11V6372.86Z" fill="#00EEFF" fill-opacity="0.5"/>
</g>
<g style="mix-blend-mode:overlay" opacity="0.2" filter="url(#filter11_f_4153_18015)">
<path d="M-913.125 8009.9C-913.125 7813.92 -754.257 7655.05 -558.284 7655.05H231.969C427.942 7655.05 586.81 7813.92 586.81 8009.9V8800.15C586.81 8996.12 427.943 9154.99 231.969 9154.99H-558.284C-754.257 9154.99 -913.125 8996.12 -913.125 8800.15V8009.9Z" fill="#4548FF"/>
</g>
<g style="mix-blend-mode:overlay" opacity="0.2" filter="url(#filter12_f_4153_18015)">
<path d="M772 7914.75C772 7718.77 930.868 7559.91 1126.84 7559.91H1917.09C2113.07 7559.91 2271.94 7718.77 2271.94 7914.75V8705C2271.94 8900.97 2113.07 9059.84 1917.09 9059.84H1126.84C930.868 9059.84 772 8900.97 772 8705V7914.75Z" fill="#002AFF" fill-opacity="0.74"/>
</g>
<defs>
<filter id="filter0_f_4153_18015" x="-1060.93" y="707.071" width="2279.56" height="2117.58" filterUnits="userSpaceOnUse" color-interpolation-filters="sRGB">
<feFlood flood-opacity="0" result="BackgroundImageFix"/>
<feBlend mode="normal" in="SourceGraphic" in2="BackgroundImageFix" result="shape"/>
<feGaussianBlur stdDeviation="414.465" result="effect1_foregroundBlur_4153_18015"/>
</filter>
<filter id="filter1_f_4153_18015" x="-520.198" y="-495.874" width="882.161" height="1451.34" filterUnits="userSpaceOnUse" color-interpolation-filters="sRGB">
<feFlood flood-opacity="0" result="BackgroundImageFix"/>
<feBlend mode="normal" in="SourceGraphic" in2="BackgroundImageFix" result="shape"/>
<feGaussianBlur stdDeviation="81.6518" result="effect1_foregroundBlur_4153_18015"/>
</filter>
<filter id="filter2_f_4153_18015" x="957.243" y="-326.265" width="757.477" height="1198.92" filterUnits="userSpaceOnUse" color-interpolation-filters="sRGB">
<feFlood flood-opacity="0" result="BackgroundImageFix"/>
<feBlend mode="normal" in="SourceGraphic" in2="BackgroundImageFix" result="shape"/>
<feGaussianBlur stdDeviation="81.6518" result="effect1_foregroundBlur_4153_18015"/>
</filter>
<filter id="filter3_f_4153_18015" x="345.487" y="-410.397" width="1056.37" height="1056.37" filterUnits="userSpaceOnUse" color-interpolation-filters="sRGB">
<feFlood flood-opacity="0" result="BackgroundImageFix"/>
<feBlend mode="normal" in="SourceGraphic" in2="BackgroundImageFix" result="shape"/>
<feGaussianBlur stdDeviation="81.6518" result="effect1_foregroundBlur_4153_18015"/>
</filter>
<filter id="filter4_f_4153_18015" x="-166.723" y="-342.663" width="1056.37" height="1056.37" filterUnits="userSpaceOnUse" color-interpolation-filters="sRGB">
<feFlood flood-opacity="0" result="BackgroundImageFix"/>
<feBlend mode="normal" in="SourceGraphic" in2="BackgroundImageFix" result="shape"/>
<feGaussianBlur stdDeviation="81.6518" result="effect1_foregroundBlur_4153_18015"/>
</filter>
<filter id="filter5_f_4153_18015" x="189.93" y="67.5" width="2309.68" height="2309.68" filterUnits="userSpaceOnUse" color-interpolation-filters="sRGB">
<feFlood flood-opacity="0" result="BackgroundImageFix"/>
<feBlend mode="normal" in="SourceGraphic" in2="BackgroundImageFix" result="shape"/>
<feGaussianBlur stdDeviation="400" result="effect1_foregroundBlur_4153_18015"/>
</filter>
<filter id="filter6_f_4153_18015" x="-991.806" y="1490.02" width="2309.68" height="2309.68" filterUnits="userSpaceOnUse" color-interpolation-filters="sRGB">
<feFlood flood-opacity="0" result="BackgroundImageFix"/>
<feBlend mode="normal" in="SourceGraphic" in2="BackgroundImageFix" result="shape"/>
<feGaussianBlur stdDeviation="400" result="effect1_foregroundBlur_4153_18015"/>
</filter>
<filter id="filter7_f_4153_18015" x="-991.806" y="2582.02" width="2309.68" height="2309.68" filterUnits="userSpaceOnUse" color-interpolation-filters="sRGB">
<feFlood flood-opacity="0" result="BackgroundImageFix"/>
<feBlend mode="normal" in="SourceGraphic" in2="BackgroundImageFix" result="shape"/>
<feGaussianBlur stdDeviation="400" result="effect1_foregroundBlur_4153_18015"/>
</filter>
<filter id="filter8_f_4153_18015" x="244.158" y="1568.33" width="3099.94" height="3099.94" filterUnits="userSpaceOnUse" color-interpolation-filters="sRGB">
<feFlood flood-opacity="0" result="BackgroundImageFix"/>
<feBlend mode="normal" in="SourceGraphic" in2="BackgroundImageFix" result="shape"/>
<feGaussianBlur stdDeviation="400" result="effect1_foregroundBlur_4153_18015"/>
</filter>
<filter id="filter9_f_4153_18015" x="684.01" y="3664.79" width="2523.08" height="2523.08" filterUnits="userSpaceOnUse" color-interpolation-filters="sRGB">
<feFlood flood-opacity="0" result="BackgroundImageFix"/>
<feBlend mode="normal" in="SourceGraphic" in2="BackgroundImageFix" result="shape"/>
<feGaussianBlur stdDeviation="255.787" result="effect1_foregroundBlur_4153_18015"/>
</filter>
<filter id="filter10_f_4153_18015" x="-1424.7" y="5506.44" width="2523.08" height="2523.08" filterUnits="userSpaceOnUse" color-interpolation-filters="sRGB">
<feFlood flood-opacity="0" result="BackgroundImageFix"/>
<feBlend mode="normal" in="SourceGraphic" in2="BackgroundImageFix" result="shape"/>
<feGaussianBlur stdDeviation="255.787" result="effect1_foregroundBlur_4153_18015"/>
</filter>
<filter id="filter11_f_4153_18015" x="-1424.7" y="7143.48" width="2523.08" height="2523.08" filterUnits="userSpaceOnUse" color-interpolation-filters="sRGB">
<feFlood flood-opacity="0" result="BackgroundImageFix"/>
<feBlend mode="normal" in="SourceGraphic" in2="BackgroundImageFix" result="shape"/>
<feGaussianBlur stdDeviation="255.787" result="effect1_foregroundBlur_4153_18015"/>
</filter>
<filter id="filter12_f_4153_18015" x="260.426" y="7048.33" width="2523.08" height="2523.08" filterUnits="userSpaceOnUse" color-interpolation-filters="sRGB">
<feFlood flood-opacity="0" result="BackgroundImageFix"/>
<feBlend mode="normal" in="SourceGraphic" in2="BackgroundImageFix" result="shape"/>
<feGaussianBlur stdDeviation="255.787" result="effect1_foregroundBlur_4153_18015"/>
</filter>
<clipPath id="clip0_4153_18015">
<rect width="881.789" height="1043.61" fill="white" transform="translate(-520 -87.6094)"/>
</clipPath>
</defs>
</svg>
